<svg width="345" height="136" viewBox="0 0 345 136" fill="none" xmlns="http://www.w3.org/2000/svg">
<g clip-path="url(#clip0_19_347)">
<rect width="345" height="136" rx="20" fill="#FFF3DD"/>
<g clip-path="url(#clip1_19_347)">
<path d="M331.337 33.7807C328.397 33.3748 323.578 32.3263 322.723 29.0118C321.493 24.412 328.124 22.9577 331.337 22.3827C340.737 20.7931 350.376 22.2474 359.844 22.2474C378.61 22.2136 397.102 18.6961 415.765 17.3771C425.097 16.7006 434.497 16.5992 443.794 17.7829C445.913 18.0535 448.135 18.2564 450.186 18.8652C451.04 19.102 451.998 19.5078 452.647 20.1166C454.219 21.6386 452.681 23.0253 451.246 23.7694C447.554 25.6973 443.35 26.4752 439.214 26.6443C430.942 27.0163 422.704 25.3252 414.432 25.6296C410.57 25.7649 406.775 26.4075 403.118 27.7266C398.845 29.2824 394.88 31.4808 390.573 32.9351C385.583 34.6262 380.319 35.4718 375.021 35.4718C369.654 35.4718 364.356 34.6601 359.058 34.0513C348.325 32.8337 337.558 32.8675 326.859 34.288C326.21 34.3895 326.21 35.4041 326.859 35.3027C337.319 33.916 347.915 33.8145 358.409 34.9983C363.604 35.5732 368.8 36.385 374.064 36.4864C378.918 36.5879 383.806 35.9791 388.488 34.6601C393.274 33.3072 397.649 30.9735 402.264 29.1471C406.741 27.3883 411.356 26.6104 416.141 26.6104C424.96 26.5428 433.813 28.5045 442.632 27.3545C444.785 27.084 446.87 26.6104 448.921 25.8664C450.494 25.2914 452.613 24.5811 453.741 23.2621C455.86 20.7254 452.784 18.4932 450.494 17.8506C445.982 16.5315 440.889 16.2948 436.206 16.0242C431.113 15.7198 426.02 15.7536 420.927 15.9904C400.315 16.9712 379.943 21.2328 359.263 21.1651C353.384 21.1651 347.505 20.624 341.626 20.5902C336.635 20.5563 330.927 20.6578 326.244 22.5856C323.304 23.8032 320.433 26.6443 322.074 29.9926C323.612 33.1381 327.953 34.2204 331.098 34.6601C331.713 34.863 331.986 33.8822 331.337 33.7807Z" fill="#DBDBDB"/>
<path d="M0.768337 79.9475C29.2756 67.704 60.5175 79.1358 86.803 91.4132C100.202 97.6702 113.396 104.367 127.376 109.305C141.083 114.141 155.337 117.49 169.796 119.418C198.816 123.307 228.519 121.582 257.061 115.258C286.969 108.628 315.306 96.5879 344.975 89.0456C375.841 81.199 408.108 79.5079 439.589 84.5473C443.418 85.1561 447.212 85.8664 451.006 86.6781C451.655 86.8134 451.929 85.8326 451.28 85.6973C420.721 79.2711 388.967 78.9667 358.34 84.987C327.714 91.0073 298.899 103.318 268.853 111.334C239.697 119.113 209.241 122.259 179.127 119.451C164.156 118.065 149.321 115.19 134.965 110.725C120.13 106.126 106.218 99.429 92.2378 92.7999C66.9778 80.7931 38.4705 68.6172 9.89478 75.7536C6.57918 76.5654 3.40031 77.6815 0.255615 79.0344C-0.325469 79.3388 0.187252 80.2181 0.768337 79.9475Z" fill="#DBDBDB"/>
<path d="M117.737 67.8393C151.132 86.2723 190.886 87.659 227.938 82.518C269.879 76.7007 310.281 63.0028 352.29 57.6589C375.67 54.6826 399.529 54.3106 422.67 59.3839C423.319 59.5191 423.593 58.5383 422.943 58.403C382.028 49.474 340.053 57.3545 299.993 66.5879C260.513 75.686 220.589 86.3061 179.674 83.7018C158.311 82.3489 137.05 77.3095 118.25 66.96C117.703 66.6217 117.19 67.5011 117.737 67.8393Z" fill="#DBDBDB"/>
<path d="M18.0299 4.69386C46.7423 -2.07052 77.3689 0.601413 104.441 12.27C117.737 17.9859 130.213 25.4267 143.271 31.6161C156.431 37.8393 170.172 42.1347 184.664 44.0626C201.242 46.261 218.026 45.8889 234.638 44.8066C235.287 44.7728 235.287 43.7582 234.638 43.792C219.632 44.7728 204.49 45.1787 189.518 43.6229C174.342 42.0332 159.849 38.1099 146.005 31.7852C132.845 25.7311 120.403 18.2903 107.175 12.4053C94.1862 6.52025 80.4111 2.63073 66.2258 0.973453C50.0579 -0.954395 33.5825 -0.00738222 17.7565 3.71303C17.107 3.84831 17.3805 4.82915 18.0299 4.69386Z" fill="#DBDBDB"/>
</g>
<g clip-path="url(#clip2_19_347)">
<path d="M271.623 77.2331C270.7 78.3154 269.401 79.9727 268.17 82.1711C263.966 89.4767 263.693 96.6469 263.624 102.938C263.556 112.104 263.487 116.703 264.479 126.681C265.402 136.016 265.641 149.409 262.325 166.489C265.299 168.654 269.64 171.156 275.314 172.476C291.653 176.264 305.189 166.827 307.752 165.001C304.505 146.162 302.728 131.078 301.702 120.491C301.053 113.795 298.66 104.054 293.909 84.5387C292.473 78.586 291.004 72.9039 286.56 71.2805C280.407 68.9806 272.853 76.0494 271.623 77.2331Z" fill="#EC615B"/>
<path opacity="0.1" d="M286.389 71.754C286.936 73.9524 287.722 77.267 288.508 81.3594C289.534 86.6356 290.901 94.6176 291.858 106.489C292.849 118.733 293.977 141.698 294.319 171.393C296.643 170.717 299.446 169.702 302.42 168.079C304.403 166.996 306.112 165.847 307.547 164.764C307.308 162.16 306.864 158.203 306.146 153.434C305.223 147.447 304.3 143.287 303.856 141.224C302.762 135.88 301.531 127.898 301.395 116.805C299.993 110.92 298.934 106.185 298.216 103.039C296.233 94.1103 295.652 90.8296 294.148 85.4181C292.644 79.9727 291.072 75.6435 290.081 73.0392C288.85 72.5657 287.62 72.1599 286.389 71.754Z" fill="#606060"/>
<path d="M271.588 80.4801C271.896 81.0888 272.409 81.2918 273.537 81.8329C274.494 82.3064 275.417 82.8814 276.374 83.2873C279.313 84.5387 282.766 90.0855 283.313 90.9648C285.398 94.3132 287.825 98.2365 289.226 103.919C289.602 105.407 290.457 109.262 289.465 122.284C288.406 135.644 287.038 137.504 288.098 144.167C288.884 149.003 289.876 154.787 294.695 157.932C299.173 160.841 304.334 159.826 305.394 159.623C311.888 158.372 315.58 153.4 319.169 148.564C324.638 141.224 326.723 133.885 327.612 129.623C328.022 127.628 327.954 121.777 327.851 110.108C327.714 98.0674 327.509 93.9073 324.33 90.3899C322.177 88.0223 319.545 86.9062 317.733 86.3312C317.87 85.5872 317.904 84.471 317.289 83.524C316.127 81.7653 313.358 81.7991 311.581 81.8329C303.958 82.0359 298.284 87.1091 298.011 87.3459C293.26 91.7089 291.858 97.0528 291.414 99.285C290.457 95.0911 288.884 91.878 287.654 89.8149C286.594 88.0223 285.022 86.196 281.843 82.4755C279.348 79.5669 278.151 78.4507 276.271 77.8419C275.861 77.7067 272.751 76.7935 271.725 78.1802C271.247 78.8228 271.247 79.8036 271.588 80.4801Z" fill="white"/>
<path opacity="0.11" d="M271.349 79.2286C271.554 78.8566 273.844 79.7022 274.084 79.8036C277.468 81.0889 280.476 83.7608 284.338 89.9502C286.321 93.1294 288.816 97.6278 290.935 103.479C292.439 101.957 293.704 100.706 294.695 99.7585C294.695 99.7585 298.353 96.2749 304.266 92.8927C304.847 92.5545 305.565 92.1486 306.077 92.453C307.137 93.028 306.009 95.8352 306.317 98.4395C306.556 100.401 307.718 103.107 312.128 106.117C312.23 106.692 312.264 107.504 311.786 108.045C310.829 109.093 308.368 108.248 307.103 107.808C305.052 107.098 301.087 105.238 296.404 99.7924C295.96 101.551 295.379 104.054 294.934 107.132C294.524 109.804 293.396 118.699 295.276 130.131C296.028 134.663 297.43 140.717 300.301 147.616C301.566 148.158 303.172 148.665 305.086 148.969C309.085 149.578 312.401 148.8 314.315 148.191C313.187 148.733 311.649 149.646 310.316 151.235C308.709 153.163 308.675 154.618 307.342 156.41C306.453 157.628 304.847 159.15 301.873 160.232C300.95 160.131 299.549 159.894 298.011 159.217C293.328 157.154 291.209 152.791 290.252 150.762C288.987 148.022 287.038 142.476 288.884 123.704C289.944 112.983 291.106 109.635 289.329 103.513C287.961 98.8115 285.603 94.922 284.783 93.6029C283.313 91.2354 280.681 87.0077 275.895 83.1182C273.639 81.2241 271.144 79.6683 271.349 79.2286Z" fill="#606060"/>
<path d="M309.462 86.8048C308.846 87.6165 308.06 88.8003 307.445 90.3561C307.103 91.2693 306.283 93.4 306.488 96.1058C306.864 101.483 310.76 104.764 311.478 105.339C311.957 105.711 312.367 106.016 312.64 106.185C312.23 107.571 311.752 109.635 311.581 112.171C311.307 115.756 311.034 119.781 313.153 120.965C314.52 121.709 316.571 121.202 317.699 120.119C317.973 119.849 318.759 119.003 318.964 115.181C319.203 110.649 318.246 108.755 319.614 107.436C320.195 106.827 321.186 106.455 322.04 106.083C322.998 105.677 323.852 105.474 324.467 105.339C324.091 108.113 323.818 110.582 323.613 112.577C323.374 115.046 323.271 116.297 324.126 117.075C324.912 117.786 326.211 117.921 327.202 117.481C328.501 116.906 328.911 115.317 329.629 112.137C330.21 109.635 330.688 107.538 330.381 104.697C330.21 103.242 329.902 102.058 329.629 101.247C329.56 100.672 329.39 99.8262 329.116 98.8454C328.535 96.8837 327.988 96.3087 327.646 95.0573C327.134 93.2647 327.715 92.3854 327.851 90.3561C327.988 88.7664 327.851 86.5004 326.689 83.6593C326.245 83.6932 325.322 83.7608 324.365 84.4034C323.203 85.1475 322.724 86.2298 322.553 86.6018C321.664 86.3989 320.058 86.196 318.212 86.7033C315.033 87.5488 313.358 89.8826 312.914 90.5928C313.803 88.665 313.051 86.7709 311.854 86.2974C310.829 85.8578 309.598 86.7371 309.462 86.8048Z" fill="#272727"/>
<path d="M313.324 97.2895C313.666 96.6469 315.375 95.2264 315.956 96.4102C316.23 96.9851 317.118 96.4778 316.845 95.9028C316.469 95.1249 315.546 94.8882 314.726 95.0573C313.734 95.2264 312.914 95.9028 312.435 96.7822C312.128 97.3572 313.016 97.8645 313.324 97.2895Z" fill="white"/>
<path d="M323.339 94.6853C323.544 94.2456 323.749 93.7382 324.091 93.4C324.433 93.0618 325.458 92.6898 325.493 93.4677C325.527 94.1103 326.552 94.1103 326.518 93.4677C326.45 92.4868 325.595 91.8442 324.604 91.9795C323.476 92.1824 322.895 93.1971 322.45 94.1441C322.177 94.7529 323.066 95.2941 323.339 94.6853Z" fill="white"/>
<path d="M323.613 97.8983C323.613 97.9322 323.613 97.966 323.613 97.9998C323.544 98.0674 323.476 98.1351 323.442 98.1689C323.271 98.2704 322.997 98.1689 323.032 97.966C323.032 97.966 323.032 97.8645 323.066 97.8983L322.963 97.9998C323.203 97.9998 323.442 97.9998 323.681 97.9998C323.647 97.966 323.647 97.966 323.613 97.9322C323.647 97.966 323.647 97.966 323.647 97.966C323.613 97.9321 323.647 97.9322 323.647 97.9998C323.681 98.2027 323.579 98.338 323.305 98.4395C323.203 98.4057 323.134 98.4057 323.032 98.3718C322.895 98.3042 322.929 98.1013 322.963 97.9998C322.997 97.966 322.963 97.966 322.929 98.0336C322.963 97.9998 322.963 97.9998 322.929 98.0336C322.69 98.2027 322.587 98.4733 322.758 98.7439C322.895 98.9468 323.237 99.0821 323.476 98.913C323.715 98.7439 323.955 98.5071 323.989 98.1689C323.989 97.7969 323.715 97.4586 323.339 97.4586C322.963 97.4586 322.69 97.6954 322.656 98.0674C322.621 98.338 322.792 98.5748 322.963 98.7439C323.168 98.9468 323.476 98.913 323.681 98.7439C324.125 98.4057 324.228 97.6954 323.715 97.3572C323.476 97.2219 323.168 97.1881 322.929 97.3233C322.621 97.4925 322.587 97.8983 322.656 98.2027C322.69 98.4733 323.032 98.6086 323.271 98.541C323.544 98.4395 323.647 98.1689 323.613 97.8983Z" fill="white"/>
<path d="M318.144 98.9468C317.152 99.5218 315.819 99.2512 315.17 98.3041C314.794 97.763 313.905 98.2703 314.281 98.8115C315.272 100.198 317.152 100.672 318.691 99.8262C319.238 99.4879 318.725 98.6086 318.144 98.9468Z" fill="white"/>
<path d="M317.392 101.145C316.64 101.72 315.99 102.464 315.546 103.31C315.238 103.885 316.127 104.392 316.435 103.817C316.845 103.039 317.426 102.397 318.144 101.856C318.349 101.686 318.315 101.314 318.144 101.145C317.904 100.942 317.597 100.976 317.392 101.145Z" fill="white"/>
<path d="M325.698 97.4249C326.381 96.6469 326.894 95.7676 327.236 94.7867C327.441 94.1779 326.45 93.9073 326.245 94.5161C325.971 95.3279 325.527 96.072 324.98 96.7146C324.57 97.2219 325.288 97.9322 325.698 97.4249Z" fill="white"/>
<path d="M325.766 98.71C326.587 98.5409 327.544 98.338 328.193 99.0144C328.637 99.488 329.355 98.7777 328.911 98.3042C327.988 97.3233 326.655 97.4925 325.459 97.763C324.843 97.8645 325.117 98.8453 325.766 98.71Z" fill="white"/>
<path d="M271.178 79.7021C272.751 77.267 276.476 78.7213 278.356 79.9389C280.612 81.3594 282.321 83.4902 283.86 85.621C286.97 89.9163 289.739 94.5838 290.764 99.8262C290.901 100.469 291.892 100.198 291.756 99.5556C290.559 93.2985 286.868 87.2782 282.697 82.4755C280.271 79.7022 273.4 74.4598 270.29 79.2286C269.948 79.736 270.837 80.2771 271.178 79.7021Z" fill="#272727"/>
<path d="M273.298 82.0021C281.501 86.568 286.116 95.125 288.44 103.851C288.611 104.494 289.602 104.223 289.431 103.58C287.039 94.6176 282.219 85.7901 273.81 81.1227C273.229 80.7845 272.717 81.6639 273.298 82.0021Z" fill="#272727"/>
<path d="M291.756 99.3865C292.61 93.4 296.473 88.3944 301.771 85.5195C304.505 84.0314 307.547 83.1182 310.658 82.6785C312.128 82.4756 313.837 82.2726 315.272 82.8138C316.845 83.3887 318.349 85.8577 316.366 86.9739C315.785 87.2783 316.298 88.1576 316.879 87.8532C319.067 86.6356 318.52 83.524 316.606 82.3403C313.632 80.4801 308.71 81.7991 305.667 82.8138C298.147 85.2151 291.926 91.2354 290.798 99.1836C290.662 99.7586 291.653 100.029 291.756 99.3865Z" fill="#272727"/>
<path d="M294.046 100.908C295.721 98.9806 297.84 97.3572 299.891 95.8352C301.873 94.347 303.993 93.1294 306.454 92.5883C307.103 92.453 306.83 91.4722 306.18 91.6074C303.651 92.1824 301.429 93.4338 299.378 94.9558C297.259 96.5454 295.071 98.2027 293.328 100.198C292.884 100.672 293.601 101.416 294.046 100.908Z" fill="#272727"/>
<path d="M306.59 92.6897C307.308 91.0663 308.231 89.5105 309.359 88.1238C309.564 87.887 309.803 87.4811 310.077 87.312C310.316 86.8723 310.624 86.8385 311.068 87.2444C311.615 87.2444 311.854 87.4473 311.854 87.9208C312.23 88.6311 312.265 89.8487 312.401 90.6604C312.538 91.303 313.529 91.0325 313.392 90.3898C313.119 89.1046 312.777 84.5048 310.316 85.7562C309.359 86.2297 308.641 87.4135 308.026 88.2252C307.103 89.4766 306.351 90.7957 305.702 92.1824C305.428 92.7574 306.317 93.2985 306.59 92.6897Z" fill="#272727"/>
<path d="M313.187 90.9649C314.931 88.7326 318.486 85.6548 321.528 87.3121C322.109 87.6165 322.621 86.7371 322.04 86.4327C318.52 84.5725 314.555 87.6165 312.435 90.2546C312.059 90.7619 312.777 91.4722 313.187 90.9649Z" fill="#272727"/>
<path d="M322.519 87.143C322.997 86.3989 325.219 83.7269 326.176 84.4372C326.689 84.8092 326.792 86.1283 326.928 86.7371C327.133 87.6841 327.202 88.6311 327.236 89.612C327.27 90.2546 328.296 90.2546 328.261 89.612C328.227 88.2591 328.056 86.94 327.715 85.621C327.509 84.8769 327.339 83.4564 326.45 83.2196C325.629 83.0167 324.501 83.7946 323.886 84.2343C322.963 84.8769 322.245 85.6886 321.664 86.6356C321.288 87.1768 322.177 87.6841 322.519 87.143Z" fill="#272727"/>
<path d="M295.379 99.2512C297.737 101.517 300.233 103.614 302.899 105.508C305.531 107.368 308.094 108.688 311.41 108.518C312.059 108.485 312.059 107.47 311.41 107.504C308.026 107.673 305.531 106.185 302.899 104.291C300.472 102.532 298.216 100.604 296.062 98.5409C295.618 98.1013 294.9 98.8115 295.379 99.2512Z" fill="#272727"/>
<path d="M288.474 102.735C292.2 119.105 282.492 136.996 290.525 152.656C292.029 155.598 294.319 158.27 297.464 159.589C300.54 160.875 304.095 160.773 307.274 159.759C314.315 157.526 318.862 151.066 322.348 144.978C324.57 141.157 326.416 137.064 327.509 132.769C328.056 130.638 328.398 128.406 328.501 126.207C328.603 123.671 328.261 121.134 328.364 118.597C328.398 117.955 327.373 117.955 327.339 118.597C327.202 122.724 327.749 126.647 326.928 130.739C326.211 134.392 324.877 137.943 323.203 141.258C320.092 147.481 315.888 154.482 309.427 157.763C306.078 159.454 301.942 160.097 298.353 158.778C294.832 157.492 292.508 154.415 291.004 151.134C287.79 143.998 288.166 135.88 289.021 128.304C289.978 119.713 291.482 111.021 289.534 102.43C289.294 101.855 288.303 102.092 288.474 102.735Z" fill="#272727"/>
<path d="M304.334 136.963C309.393 136.523 314.726 135.576 319.784 136.117C320.434 136.185 320.434 135.17 319.784 135.102C314.726 134.527 309.393 135.508 304.334 135.948C303.685 136.016 303.685 137.03 304.334 136.963Z" fill="#272727"/>
<path d="M319.306 135.88C318.656 139.601 317.665 143.186 316.332 146.703C316.093 147.312 317.084 147.583 317.323 146.974C318.691 143.456 319.682 139.837 320.297 136.151C320.4 135.508 319.408 135.238 319.306 135.88Z" fill="#272727"/>
<path d="M306.146 90.8634C305.121 96.8498 306.249 103.986 312.435 106.726C313.017 106.996 313.563 106.117 312.948 105.846C307.171 103.276 306.18 96.6807 307.137 91.134C307.24 90.4913 306.249 90.2208 306.146 90.8634Z" fill="#272727"/>
<path d="M327.168 89.24C327.236 91.1678 327.202 93.1295 327.475 95.0235C327.749 97.0866 329.629 99.3865 328.637 101.45C328.364 102.025 329.253 102.566 329.526 101.957C330.415 100.097 329.629 98.541 328.979 96.7146C328.125 94.3809 328.33 91.6751 328.227 89.2061C328.159 88.5635 327.133 88.5635 327.168 89.24Z" fill="#272727"/>
<path d="M315.238 106.016C316.742 105.238 318.451 106.049 318.793 107.673C318.827 107.842 319.067 107.774 319.032 107.605C318.622 105.813 316.742 104.933 315.102 105.779C314.965 105.88 315.102 106.117 315.238 106.016Z" fill="white"/>
<path d="M317.836 107.74C318.075 108.011 318.246 108.315 318.349 108.654C318.417 108.823 318.656 108.755 318.588 108.586C318.451 108.214 318.246 107.876 318.007 107.571C317.905 107.436 317.699 107.639 317.836 107.74Z" fill="white"/>
<path d="M324.706 105.373C325.014 103.986 325.903 102.836 327.202 102.194C327.338 102.126 327.236 101.889 327.065 101.991C325.698 102.633 324.775 103.851 324.467 105.305C324.433 105.474 324.672 105.542 324.706 105.373Z" fill="white"/>
<path d="M264.513 33.6706C262.154 34.8543 260.172 37.0866 259.283 38.0674C257.096 40.5364 255.968 42.8363 254.737 45.4067C253.712 47.5037 252.515 50.48 251.558 54.2004C252.891 54.4372 254.224 54.6401 255.557 54.8769C255.489 56.1621 255.489 58.0561 256.002 60.2884C256.48 62.3177 257.267 65.5646 260.001 67.8307C263.761 71.0099 268.751 70.232 269.674 70.0967C269.743 71.6864 270.085 73.9524 271.383 76.2861C271.725 76.8611 272.067 77.4023 272.409 77.8758C274.289 77.3346 277.194 76.2185 280.031 73.9186C287.278 68.1351 288.269 59.5105 288.577 57.0077C289.021 53.152 289.876 45.8803 285.056 39.86C280.031 33.6367 270.495 30.6942 264.513 33.6706Z" fill="white"/>
<path d="M257.506 40.7055C258.463 39.285 260.309 37.188 262.394 35.7337C265.744 33.4 267.247 34.3808 268.957 32.3177C270.187 30.8295 270.973 28.3943 270.05 27.2444C268.581 25.418 263.351 27.6164 262.667 27.9208C261.163 28.5634 256.207 30.6266 254.224 35.8352C252.584 40.1982 253.677 44.9671 254.429 45.0685C254.635 45.1024 254.771 44.7641 255.865 43.1069C256.378 42.2613 256.959 41.4834 257.506 40.7055Z" fill="#FEA300"/>
<path d="M264.957 30.5251C264.684 31.4045 264.274 33.1632 265.641 36.6131C268.068 42.8025 273.742 48.3493 276.579 47.3346C277.194 47.0979 277.844 46.4891 279.074 46.4214C279.382 46.4214 280.613 46.3538 281.57 47.0979C283.074 48.2816 283.142 50.8521 282.151 52.5094C281.98 52.8138 281.057 54.2005 279.655 54.3019C278.425 54.4034 278.015 53.4564 277.023 53.3887C274.597 53.2534 272.512 58.5297 272.238 59.2399C271.691 60.5928 270.358 64.1103 271.315 68.6086C271.52 69.5894 271.999 71.6526 273.469 73.7833C276.648 78.3493 281.98 79.4654 283.962 79.8713C285.911 80.2771 293.328 81.7991 299.105 77.0641C300.028 76.32 303.07 73.7495 303.89 69.3865C305.292 62.0133 299.036 56.5003 298.66 56.196C298.387 52.3741 297.464 46.2861 294.217 39.6232C292.166 35.3955 290.252 31.506 285.911 28.5634C280.202 24.7416 271.896 23.6593 267.555 26.9738C267.111 27.3797 265.641 28.5296 264.957 30.5251Z" fill="#FEA300"/>
<path d="M258.463 66.816C257.95 67.3234 256.446 68.8792 256.173 71.3143C255.797 74.6965 258.087 77.0302 258.565 77.5037C261.061 80.0404 265.231 81.055 268.239 79.533C268.478 79.4316 271.11 78.0449 271.212 76.0494C271.247 75.17 270.768 74.7303 270.084 72.7687C269.64 71.4834 269.367 70.435 269.162 69.7247C268.239 70.0291 266.666 70.435 264.718 70.1644C261.231 69.7247 259.078 67.4925 258.463 66.816Z" fill="#FEA300"/>
<path opacity="0.12" d="M265.299 33.5014C265.333 34.5499 265.47 36.1057 266.188 37.763C266.667 38.8791 267.145 39.5556 267.521 40.0967C268.957 42.2613 269.435 44.2906 270.187 46.5567C271.384 50.0742 271.178 53.0167 270.939 56.6694C270.734 59.7134 270.051 64.347 267.829 69.7247C268.752 69.9953 270.085 70.5364 271.52 71.4834C274.152 73.2422 275.349 75.3391 276.101 76.32C277.639 78.3154 281.057 80.4124 289.295 80.2771C288.474 79.4654 287.312 78.2478 286.047 76.7596C283.074 73.3098 280.476 70.2997 278.938 66.6469C278.049 64.5499 276.682 60.2546 277.741 54.0313C278.698 54.5048 279.826 54.471 280.715 53.896C281.638 53.2872 282.219 52.0697 281.911 50.9535C281.535 49.6683 279.963 48.7889 278.357 49.1948C278.015 48.3493 277.468 47.1317 276.579 45.8126C275.178 43.7495 273.708 42.4642 273.161 41.9907C271.418 40.5026 268.888 37.9659 265.299 33.5014Z" fill="#606060"/>
<path opacity="0.14" d="M251.934 53.5916C251.969 53.0505 253.712 52.6108 255.181 52.7123C256.48 52.8137 258.018 53.3887 257.984 53.896C257.95 54.3695 256.515 54.7416 255.455 54.7754C253.814 54.843 251.934 54.1328 251.934 53.5916Z" fill="#606060"/>
<path d="M256.173 41.0099C254.224 45.2376 252.481 49.533 250.977 53.9299C250.875 54.2004 251.08 54.471 251.319 54.5387C252.652 55.046 253.985 55.2827 255.386 55.2489C256.036 55.2489 256.036 54.2343 255.386 54.2343C254.053 54.2343 252.823 53.9975 251.592 53.5578C251.695 53.7608 251.832 53.9637 251.934 54.1666C253.404 49.8374 255.079 45.6097 257.027 41.4834C257.335 40.9423 256.446 40.4011 256.173 41.0099Z" fill="#272727"/>
<path d="M255.25 55.4519C255.523 59.8149 255.933 64.6514 259.215 67.9321C262.36 71.1113 266.906 70.8408 271.042 70.3673C271.691 70.2996 271.691 69.285 271.042 69.3526C267.213 69.7923 262.872 70.1643 259.933 67.2218C256.856 64.1441 256.549 59.5443 256.275 55.4519C256.241 54.8092 255.216 54.8092 255.25 55.4519Z" fill="#272727"/>
<path d="M269.025 70.4688C269.469 72.8363 270.29 75.1024 271.452 77.1993C271.759 77.7743 272.648 77.267 272.34 76.692C271.212 74.6289 270.46 72.4981 270.016 70.1982C269.914 69.5556 268.922 69.8261 269.025 70.4688Z" fill="#272727"/>
<path d="M255.933 60.6266C257.608 62.081 260.104 61.4045 260.753 59.2737C260.958 58.6311 259.967 58.3944 259.762 59.0032C259.352 60.356 257.745 60.8634 256.685 59.8825C256.173 59.4767 255.455 60.1869 255.933 60.6266Z" fill="#272727"/>
<path d="M259.078 59.2399C259.625 59.3752 260.035 59.6796 260.377 60.0854C260.548 60.2884 260.924 60.2546 261.095 60.0854C261.3 59.8825 261.266 59.5781 261.095 59.3752C260.65 58.8341 260.035 58.4282 259.352 58.2591C258.736 58.09 258.463 59.0708 259.078 59.2399Z" fill="#272727"/>
<path d="M260.616 46.5905C260.89 45.17 262.667 45.4406 263.624 45.9479C264.445 46.3876 265.026 47.0978 265.368 47.9434C265.607 48.5522 266.598 48.2816 266.359 47.6728C265.812 46.2185 264.684 45.0685 263.112 44.6627C261.676 44.2906 259.967 44.7303 259.659 46.3199C259.522 46.9626 260.514 47.2331 260.616 46.5905Z" fill="#272727"/>
<path d="M260.582 40.604C262.12 38.0674 265.128 40.0291 265.743 42.1599C265.914 42.8025 266.906 42.5319 266.735 41.8893C266.29 40.3335 265.197 38.8791 263.522 38.4733C262.018 38.135 260.48 38.7777 259.693 40.0629C259.352 40.6717 260.24 41.179 260.582 40.604Z" fill="#272727"/>
<path d="M261.608 52.3402C262.257 52.3402 262.257 51.3256 261.608 51.3256C260.958 51.3256 260.924 52.3402 261.608 52.3402Z" fill="#272727"/>
<path d="M263.556 50.8182C263.59 50.8182 263.658 50.8182 263.693 50.8182C263.966 50.8182 264.205 50.5815 264.205 50.3109C264.205 50.0403 263.966 49.8036 263.693 49.8036C263.658 49.8036 263.59 49.8036 263.556 49.8036C263.282 49.8036 263.043 50.0403 263.043 50.3109C263.043 50.6153 263.282 50.8182 263.556 50.8182Z" fill="#272727"/>
<path d="M263.59 52.5432C263.59 52.577 263.59 52.6108 263.59 52.6446C263.59 53.2872 264.616 53.2872 264.616 52.6446C264.616 52.6108 264.616 52.577 264.616 52.5432C264.616 51.9006 263.59 51.9006 263.59 52.5432C263.59 52.577 263.59 52.6108 263.59 52.6446C263.59 53.2872 264.616 53.2872 264.616 52.6446C264.616 52.6108 264.616 52.577 264.616 52.5432C264.616 51.9006 263.59 51.9006 263.59 52.5432Z" fill="#272727"/>
<path d="M278.493 47.3684C279.416 46.0494 280.988 46.8949 281.535 47.9772C281.98 48.8228 281.98 49.8374 281.946 50.7506C281.809 53.0505 279.86 54.674 277.604 53.2535C277.058 52.8814 276.545 53.7608 277.092 54.1328C278.425 55.0122 280.134 55.1137 281.467 54.099C282.834 53.0505 283.074 51.3256 282.971 49.7021C282.868 48.1463 282.253 46.4214 280.612 45.8464C279.45 45.4406 278.288 45.8803 277.604 46.8611C277.263 47.3684 278.151 47.8758 278.493 47.3684Z" fill="#272727"/>
<path d="M186.545 28.0561C185.827 28.0561 185.109 28.0899 184.426 28.0899C183.264 30.3222 182.614 32.3515 182.238 33.8397C181.144 38.2027 181.418 41.8216 181.623 43.5804C181.76 44.7641 181.965 45.745 182.136 46.4214C182.751 46.4214 183.366 46.4214 183.981 46.4214C184.221 47.2331 184.46 48.0449 184.699 48.8566C190.476 48.8228 195.227 48.8228 198.543 48.8566C218.641 49.0257 232.656 49.8036 235.903 49.9727C239.971 50.2095 243.286 50.4462 245.337 50.5815C245.406 49.3301 245.747 48.8904 246.055 48.7551C246.602 48.5184 247.08 49.0933 247.798 48.958C248.55 48.8228 249.029 48.0449 249.336 47.3346C249.952 47.639 251.08 48.0449 252.413 47.8419C252.72 47.8081 252.994 47.7066 253.233 47.639C253.814 46.4891 254.395 45.3391 254.976 44.1892C254.156 43.9186 252.994 43.6818 251.592 43.6818C250.806 43.6818 250.123 43.7833 249.542 43.8848C249.473 43.7157 248.926 42.1937 247.491 41.8555C247.046 41.754 246.67 41.7878 246.363 41.8555C246.158 41.4834 245.952 41.1114 245.747 40.7393C244.927 40.604 243.662 40.4011 242.158 40.1305C229.956 37.9321 221.444 35.2602 214.95 33.3323C208.729 31.4721 199.671 28.9355 188.049 26.1283C187.57 26.7709 187.058 27.4135 186.545 28.0561Z" fill="white"/>
<path opacity="0.07" d="M181.726 41.179C182.033 41.1114 182.375 41.8893 182.751 41.7878C183.366 41.6525 183.23 39.5217 183.366 37.9321C183.469 36.4101 183.913 34.2117 185.417 31.5397C186.408 31.9456 187.912 32.5882 189.724 33.3661C196.253 36.1734 200.765 38.338 202.132 38.9468C211.156 43.1069 221.068 44.9671 223.564 45.4406C229.238 46.5229 237.099 47.4699 246.534 47.064C246.123 48.1801 245.713 49.2963 245.303 50.4124C243.731 50.3786 241.44 50.3786 238.638 50.3109C226.606 50.0742 218.197 49.7021 213.378 49.4992C206.575 49.2286 196.834 48.958 184.528 48.9919C184.392 48.0787 184.255 47.1655 184.118 46.2523C183.332 46.3876 182.546 46.5229 181.76 46.6582C181.247 42.4304 181.384 41.2466 181.726 41.179Z" fill="#606060"/>
<path d="M187.263 26.1621C182.99 32.6897 181.794 40.807 183.982 48.2816C184.152 48.9242 185.144 48.6536 184.973 48.011C182.854 40.7731 184.016 32.9941 188.152 26.6694C188.528 26.0944 187.639 25.5871 187.263 26.1621Z" fill="#272727"/>
<path d="M188.152 27.1429C207.396 31.9456 226.606 36.7483 245.85 41.5172C246.499 41.6863 246.773 40.7055 246.123 40.5364C226.879 35.7337 207.669 30.931 188.425 26.1621C187.81 25.993 187.536 26.9738 188.152 27.1429Z" fill="#272727"/>
<path d="M184.699 49.3977C204.764 49.2286 224.828 49.7021 244.859 50.7844C245.508 50.8182 245.508 49.8036 244.859 49.7698C224.828 48.6875 204.764 48.214 184.699 48.3831C184.05 48.3831 184.05 49.3977 184.699 49.3977Z" fill="#272727"/>
<path d="M245.542 41.1452C246.91 44.1553 246.602 47.5713 244.722 50.3109C244.346 50.8521 245.235 51.3594 245.611 50.8182C247.696 47.7743 247.969 43.9862 246.431 40.6379C246.158 40.0629 245.269 40.5702 245.542 41.1452Z" fill="#272727"/>
<path d="M246.568 42.4642C246.944 42.7348 247.217 42.6334 247.661 42.7348C248.516 42.9716 248.858 43.7495 249.029 44.5612C249.302 46.0494 248.926 49.1948 246.704 48.3154C246.089 48.0787 245.816 49.0595 246.431 49.2963C248.687 50.1756 250.157 47.8419 250.157 45.8803C250.157 44.798 250.02 43.5804 249.405 42.6672C249.2 42.3628 248.926 42.0584 248.584 41.8893C248.14 41.6863 247.525 41.8216 247.149 41.5511C246.533 41.2128 246.021 42.0922 246.568 42.4642Z" fill="#272727"/>
<path d="M249.576 44.3244C251.319 44.223 253.062 44.2568 254.771 44.4935C255.421 44.5612 255.421 43.5465 254.771 43.4789C253.028 43.276 251.319 43.2083 249.576 43.3098C248.926 43.3774 248.926 44.3921 249.576 44.3244Z" fill="#272727"/>
<path d="M249.439 48.0448C250.84 48.2816 252.242 48.3831 253.643 48.2478C254.293 48.1801 254.293 47.1655 253.643 47.2331C252.31 47.3346 251.011 47.3008 249.712 47.064C249.063 46.9626 248.79 47.9096 249.439 48.0448Z" fill="#272727"/>
<path d="M186.682 27.7855C183.366 25.8915 182.443 31.8103 181.999 33.6705C180.974 37.9659 180.495 42.3966 181.76 46.692C181.828 46.8949 182.033 47.064 182.238 47.064C182.683 47.064 183.161 47.064 183.606 47.064C184.255 47.064 184.255 46.0494 183.606 46.0494C183.161 46.0494 182.683 46.0494 182.238 46.0494C182.409 46.1846 182.58 46.2861 182.717 46.4214C181.828 43.3098 181.828 40.1643 182.341 36.9851C182.58 35.5646 182.888 34.1441 183.264 32.7574C183.503 31.8442 184.255 27.5488 186.135 28.6649C186.75 29.0031 187.263 28.1238 186.682 27.7855Z" fill="#272727"/>
<path d="M223.632 35.0573C223.017 34.3132 221.991 34.4146 221.854 34.4146C220.727 34.4823 219.633 35.4969 218.436 37.9659C216.112 42.6672 216.009 47.3684 216.009 48.1125C215.975 51.3594 216.283 56.6356 218.607 62.9265C218.812 65.5646 219.257 69.2512 220.248 73.5466C221.991 81.258 223.837 89.3752 230.195 96.5793C232.587 99.3189 237.304 104.629 245.508 106.557C254.088 108.586 261.061 105.576 262.77 104.798C264.274 104.088 268.478 101.991 272.033 97.5601C274.186 94.8882 276.681 91.9795 276.271 88.3944C276.1 86.8386 275.417 85.5195 274.391 83.4226C273.366 81.3256 272.819 80.2771 271.725 79.8713C270.221 79.2963 268.615 80.3109 266.837 81.3256C263.829 83.0167 263.556 84.6401 260.309 86.3312C259.454 86.7709 258.6 87.0753 256.89 87.6165C254.19 88.4958 251.524 89.3752 249.063 89.5443C243.696 89.9164 239.39 86.8724 238.159 85.993C233.613 82.7799 231.835 78.4846 230.673 75.6773C228.076 69.3865 228.281 63.6029 228.725 60.2207C230.331 59.9502 231.323 59.3076 231.801 58.9355C233.613 57.5488 234.057 55.621 234.741 52.6446C235.185 50.7844 235.39 49.8036 234.912 49.4316C233.921 48.6875 230.878 51.1227 230.195 51.6976C230.331 49.3977 230.673 47.5375 231.015 46.2185C231.459 44.4597 231.699 43.5466 232.314 42.8363C233.51 41.4496 234.912 41.5849 235.39 40.2658C235.664 39.5556 235.63 38.5747 235.049 37.9998C234.365 37.3233 232.895 37.3571 231.63 38.338C231.22 37.4586 230.4 36.9175 229.511 36.8836C228.622 36.8498 228.041 37.391 227.87 37.5263C227.973 36.6131 227.563 35.7675 226.879 35.4293C225.956 34.9558 224.486 35.4969 223.94 36.8836C223.974 36.7145 224.213 35.7675 223.632 35.0573Z" fill="white"/>
<path opacity="0.12" d="M221.854 34.4146C221.034 35.8352 220.009 37.9321 219.325 40.6717C217.821 46.6243 219.052 51.5962 219.598 53.9975C225.478 78.789 222.914 79.3978 227.016 85.2151C228.52 87.3121 238.843 101.382 254.224 99.5218C267.111 97.966 273.947 86.3651 274.836 84.8092C275.348 86.1621 275.964 88.462 275.553 91.2016C274.938 95.2264 272.409 97.763 271.486 98.7101C270.597 99.5894 269.503 100.367 267.282 101.889C265.299 103.276 263.351 104.494 262.496 104.933C258.429 107.199 252.139 107.74 247.764 107.166C235.869 105.61 228.725 94.4485 225.751 89.8149C218.949 79.2286 218.265 68.5071 218.334 63.1632C217.684 60.9986 217.035 58.8002 216.385 56.6356C215.941 53.2873 215.907 50.5139 215.975 48.586C216.146 43.7495 216.283 40.1305 218.778 37.0527C219.872 35.6999 221.068 34.8881 221.854 34.4146Z" fill="#606060"/>
<path d="M268.136 101.382C273.537 98.8453 277.16 93.5353 276.271 87.515C275.759 83.8623 272.785 77.5714 268.034 79.8036C265.914 80.8183 264.171 82.6785 262.223 83.9975C259.522 85.8239 256.412 87.2444 253.301 88.2253C249.336 89.4767 244.927 89.7473 241.099 87.8532C238.296 86.4665 236.108 84.2005 234.433 81.63C230.742 75.9818 228.828 69.3188 229.272 62.5883C229.306 61.9457 228.281 61.9457 228.246 62.5883C227.87 68.2704 229.135 73.6819 231.665 78.7551C233.886 83.2873 237.134 87.5488 242.056 89.3752C248.038 91.5736 254.566 89.3414 259.967 86.5342C262.394 85.249 264.479 83.5917 266.666 81.9344C268.649 80.4124 270.631 79.6683 272.648 81.6977C275.143 84.2005 275.895 88.5635 275.143 91.878C274.22 95.8352 271.247 98.8115 267.623 100.503C267.042 100.773 267.555 101.653 268.136 101.382Z" fill="#272727"/>
<path d="M229.204 63.028C228.759 61.1678 230.092 60.6943 231.323 59.8149C232.041 59.3076 232.587 58.5973 233.1 57.887C234.399 56.0268 235.425 53.8622 235.698 51.5961C235.835 50.48 236.074 48.7213 234.536 48.6536C232.724 48.586 231.972 50.8521 230.263 51.0212C229.614 51.0888 229.614 52.1035 230.263 52.0358C231.562 51.9005 232.211 51.0888 233.203 50.3447C233.784 49.9051 234.433 49.3977 234.741 50.3786C234.912 50.9197 234.638 51.9344 234.502 52.4755C234.262 53.6255 233.75 54.7416 233.203 55.7901C232.69 56.7371 232.109 57.7179 231.323 58.4958C230.605 59.2399 229.614 59.409 228.828 60.0178C227.768 60.8295 227.939 62.2162 228.212 63.3324C228.383 63.9412 229.374 63.6706 229.204 63.028Z" fill="#272727"/>
<path d="M217.274 57.6841C216.591 53.3211 216.522 48.8566 217.206 44.4936C217.479 42.7348 217.821 40.9423 218.436 39.2512C218.812 38.2027 219.325 36.9851 220.077 36.1395C221.103 35.0234 223.119 34.4485 223.666 36.3425C223.837 36.9851 224.828 36.7145 224.657 36.0719C224.179 34.4485 222.606 33.5691 220.966 34.2117C218.881 35.0572 217.889 37.5939 217.24 39.5217C215.326 45.3729 215.326 51.9344 216.249 57.9547C216.385 58.5973 217.377 58.3267 217.274 57.6841Z" fill="#272727"/>
<path d="M222.231 40.232C223.051 38.2365 225.375 34.2117 227.905 36.9513C228.349 37.4248 229.067 36.7145 228.622 36.241C227.46 34.9896 225.785 34.7867 224.316 35.6322C222.675 36.5454 221.923 38.338 221.239 39.9952C221 40.5702 221.991 40.8408 222.231 40.232Z" fill="#272727"/>
<path d="M226.537 41.0776C226.572 39.7923 227.084 38.3718 228.349 37.763C229.409 37.2557 230.673 37.4924 231.391 38.4056C231.801 38.913 232.519 38.2027 232.109 37.6954C231.118 36.4778 229.34 36.1734 227.939 36.816C226.298 37.5939 225.546 39.3526 225.512 41.0776C225.478 41.7202 226.503 41.7202 226.537 41.0776Z" fill="#272727"/>
<path d="M229.511 41.4158C230.126 39.1497 232.69 37.0866 234.912 38.9129C235.425 39.3188 236.142 38.6085 235.63 38.2027C232.793 35.9028 229.374 38.0674 228.52 41.1452C228.349 41.7878 229.34 42.0584 229.511 41.4158Z" fill="#272727"/>
<path d="M234.707 38.7438C235.801 40.2658 233.374 41.2128 232.519 41.9231C231.801 42.4981 231.391 43.2421 231.084 44.0877C230.263 46.4214 229.887 48.958 229.682 51.3932C229.614 52.0358 230.639 52.0358 230.708 51.3932C230.878 49.6007 231.152 47.8081 231.596 46.0494C231.733 45.4744 231.87 44.8994 232.075 44.3244C232.519 43.1407 233.169 42.701 234.16 41.9907C235.39 41.1114 236.689 39.6909 235.595 38.1689C235.219 37.6954 234.331 38.2027 234.707 38.7438Z" fill="#272727"/>
<path d="M216.009 56.6694C216.556 58.9693 217.24 61.2354 218.095 63.4676C218.334 64.0764 219.325 63.8058 219.086 63.1971C218.231 60.9648 217.548 58.6987 217.001 56.3989C216.864 55.7562 215.873 56.0268 216.009 56.6694Z" fill="#272727"/>
<path d="M217.924 64.1103C219.223 75.745 222.128 87.6841 230.024 96.7484C236.313 103.952 246.294 109.432 256.138 107.639C260.787 106.793 265.026 104.494 268.41 101.281C268.888 100.841 268.17 100.097 267.692 100.57C260.924 106.996 251.285 108.688 242.705 104.866C233.476 100.706 227.016 92.8927 223.359 83.6593C220.897 77.4023 219.667 70.7732 218.915 64.1441C218.881 63.4676 217.855 63.4676 217.924 64.1103Z" fill="#272727"/>
</g>
<path d="M29.38 24H32.54L28.58 33.44C27.8733 35.1733 27.08 36.3733 26.2 37.04C25.3333 37.7067 24.14 38.04 22.62 38.04H22.06V35.22H22.94C23.5667 35.22 24.0467 35.1267 24.38 34.94C24.7133 34.7533 25.02 34.4 25.3 33.88L20.1 24H23.5L26.82 30.4L29.38 24ZM39.5606 32.2C40.494 32.7867 40.9606 33.6533 40.9606 34.8C40.9606 35.8267 40.5473 36.6667 39.7206 37.32C38.894 37.9733 37.834 38.3 36.5406 38.3C35.2073 38.3 34.1406 37.9467 33.3406 37.24C32.5406 36.5333 32.134 35.5867 32.1206 34.4H34.7606C34.774 34.5733 34.8073 34.74 34.8606 34.9C34.9273 35.0467 35.0073 35.1733 35.1006 35.28C35.2073 35.3867 35.3273 35.48 35.4606 35.56C35.6073 35.64 35.7673 35.7 35.9406 35.74C36.1273 35.78 36.3273 35.8 36.5406 35.8C37.0206 35.8 37.4006 35.6933 37.6806 35.48C37.9606 35.2667 38.1006 34.98 38.1006 34.62C38.1006 34.38 38.034 34.1733 37.9006 34C37.7806 33.8133 37.6006 33.6733 37.3606 33.58C37.134 33.4867 36.8606 33.44 36.5406 33.44H35.3806V31.32H36.5406C36.9673 31.32 37.294 31.2333 37.5206 31.06C37.7473 30.8733 37.8606 30.6133 37.8606 30.28C37.8606 29.9467 37.734 29.6867 37.4806 29.5C37.2406 29.3 36.9073 29.2 36.4806 29.2C36.054 29.2 35.7073 29.3067 35.4406 29.52C35.1873 29.7333 35.0473 30.0333 35.0206 30.42H32.3606C32.3873 29.38 32.7873 28.5333 33.5606 27.88C34.334 27.2267 35.3273 26.9 36.5406 26.9C37.7406 26.9 38.7206 27.2067 39.4806 27.82C40.254 28.42 40.6406 29.1933 40.6406 30.14C40.6406 30.9667 40.2806 31.6533 39.5606 32.2ZM49.9197 27.2H52.8397V38H49.9197V33.86H45.9997V38H43.0797V27.2H45.9997V31.2H49.9197V27.2ZM64.4583 27.18H66.6383V37.98H64.3383L64.0983 37.02C63.1116 37.8733 61.9449 38.3 60.5983 38.3C58.9716 38.3 57.6183 37.76 56.5383 36.68C55.4716 35.5867 54.9383 34.22 54.9383 32.58C54.9383 30.9533 55.4716 29.6 56.5383 28.52C57.6183 27.44 58.9716 26.9 60.5983 26.9C61.9716 26.9 63.1516 27.34 64.1383 28.22L64.4583 27.18ZM58.7183 34.7C59.2783 35.26 59.9783 35.54 60.8183 35.54C61.6716 35.54 62.3783 35.26 62.9383 34.7C63.4983 34.14 63.7783 33.4333 63.7783 32.58C63.7783 31.7267 63.4983 31.02 62.9383 30.46C62.3783 29.9 61.6783 29.62 60.8383 29.62C60.2783 29.62 59.7716 29.7533 59.3183 30.02C58.8783 30.2733 58.5316 30.6267 58.2783 31.08C58.0249 31.52 57.8983 32.02 57.8983 32.58C57.8983 33.4333 58.1716 34.14 58.7183 34.7ZM77.1269 23.5V25.66H71.6269V23.5H77.1269ZM77.3069 27.2H78.9469V38H76.1269V32.28L71.1069 38H69.4469V27.2H72.2669V32.86L77.3069 27.2ZM96.4567 38H92.9367L89.4567 32.84V38H86.5367V27.2H89.4567V32L92.7367 27.2H96.0567L92.3967 32.36L96.4567 38ZM106.099 27.18H108.279V37.98H105.979L105.739 37.02C104.752 37.8733 103.586 38.3 102.239 38.3C100.612 38.3 99.2589 37.76 98.1789 36.68C97.1122 35.5867 96.5789 34.22 96.5789 32.58C96.5789 30.9533 97.1122 29.6 98.1789 28.52C99.2589 27.44 100.612 26.9 102.239 26.9C103.612 26.9 104.792 27.34 105.779 28.22L106.099 27.18ZM100.359 34.7C100.919 35.26 101.619 35.54 102.459 35.54C103.312 35.54 104.019 35.26 104.579 34.7C105.139 34.14 105.419 33.4333 105.419 32.58C105.419 31.7267 105.139 31.02 104.579 30.46C104.019 29.9 103.319 29.62 102.479 29.62C101.919 29.62 101.412 29.7533 100.959 30.02C100.519 30.2733 100.172 30.6267 99.9189 31.08C99.6656 31.52 99.5389 32.02 99.5389 32.58C99.5389 33.4333 99.8122 34.14 100.359 34.7ZM121.008 38H117.488L114.008 32.84V38H111.088V27.2H114.008V32L117.288 27.2H120.608L116.948 32.36L121.008 38ZM126.97 38.3C125.863 38.3 124.863 38.0533 123.97 37.56C123.076 37.0667 122.376 36.3867 121.87 35.52C121.376 34.64 121.13 33.6667 121.13 32.6C121.13 30.96 121.683 29.6 122.79 28.52C123.896 27.44 125.29 26.9 126.97 26.9C128.636 26.9 130.023 27.44 131.13 28.52C132.236 29.6 132.79 30.96 132.79 32.6C132.79 34.2267 132.23 35.5867 131.11 36.68C130.003 37.76 128.623 38.3 126.97 38.3ZM126.97 35.56C127.81 35.56 128.496 35.2867 129.03 34.74C129.563 34.18 129.83 33.4667 129.83 32.6C129.83 31.7333 129.563 31.0267 129.03 30.48C128.496 29.92 127.803 29.64 126.95 29.64C126.11 29.64 125.423 29.92 124.89 30.48C124.356 31.0267 124.09 31.7333 124.09 32.6C124.09 33.0267 124.156 33.4267 124.29 33.8C124.436 34.1733 124.636 34.4867 124.89 34.74C125.143 34.9933 125.443 35.1933 125.79 35.34C126.15 35.4867 126.543 35.56 126.97 35.56ZM145.376 32.56C145.376 32.84 145.356 33.1267 145.316 33.42H137.156C137.276 34.1533 137.563 34.72 138.016 35.12C138.483 35.5067 139.076 35.7 139.796 35.7C140.289 35.7 140.736 35.5933 141.136 35.38C141.536 35.1533 141.849 34.8467 142.076 34.46H145.156C144.756 35.6333 144.076 36.5667 143.116 37.26C142.156 37.9533 141.049 38.3 139.796 38.3C138.196 38.3 136.863 37.7533 135.796 36.66C134.729 35.5667 134.196 34.2133 134.196 32.6C134.196 31.96 134.283 31.3467 134.456 30.76C134.643 30.1733 134.903 29.6467 135.236 29.18C135.583 28.7133 135.983 28.3133 136.436 27.98C136.889 27.6333 137.403 27.3667 137.976 27.18C138.549 26.9933 139.156 26.9 139.796 26.9C140.876 26.9 141.843 27.1533 142.696 27.66C143.563 28.1667 144.223 28.8533 144.676 29.72C145.143 30.5867 145.376 31.5333 145.376 32.56ZM139.796 29.38C139.143 29.38 138.589 29.56 138.136 29.92C137.696 30.28 137.396 30.78 137.236 31.42H142.456C142.323 30.98 142.129 30.6133 141.876 30.32C141.623 30.0133 141.316 29.78 140.956 29.62C140.609 29.46 140.223 29.38 139.796 29.38ZM27.92 56.2C28.8533 56.7867 29.32 57.6533 29.32 58.8C29.32 59.8267 28.9067 60.6667 28.08 61.32C27.2533 61.9733 26.1933 62.3 24.9 62.3C23.5667 62.3 22.5 61.9467 21.7 61.24C20.9 60.5333 20.4933 59.5867 20.48 58.4H23.12C23.1333 58.5733 23.1667 58.74 23.22 58.9C23.2867 59.0467 23.3667 59.1733 23.46 59.28C23.5667 59.3867 23.6867 59.48 23.82 59.56C23.9667 59.64 24.1267 59.7 24.3 59.74C24.4867 59.78 24.6867 59.8 24.9 59.8C25.38 59.8 25.76 59.6933 26.04 59.48C26.32 59.2667 26.46 58.98 26.46 58.62C26.46 58.38 26.3933 58.1733 26.26 58C26.14 57.8133 25.96 57.6733 25.72 57.58C25.4933 57.4867 25.22 57.44 24.9 57.44H23.74V55.32H24.9C25.3267 55.32 25.6533 55.2333 25.88 55.06C26.1067 54.8733 26.22 54.6133 26.22 54.28C26.22 53.9467 26.0933 53.6867 25.84 53.5C25.6 53.3 25.2667 53.2 24.84 53.2C24.4133 53.2 24.0667 53.3067 23.8 53.52C23.5467 53.7333 23.4067 54.0333 23.38 54.42H20.72C20.7467 53.38 21.1467 52.5333 21.92 51.88C22.6933 51.2267 23.6867 50.9 24.9 50.9C26.1 50.9 27.08 51.2067 27.84 51.82C28.6133 52.42 29 53.1933 29 54.14C29 54.9667 28.64 55.6533 27.92 56.2ZM40.2591 51.18H42.4391V61.98H40.1391L39.8991 61.02C38.9124 61.8733 37.7457 62.3 36.3991 62.3C34.7724 62.3 33.4191 61.76 32.3391 60.68C31.2724 59.5867 30.7391 58.22 30.7391 56.58C30.7391 54.9533 31.2724 53.6 32.3391 52.52C33.4191 51.44 34.7724 50.9 36.3991 50.9C37.7724 50.9 38.9524 51.34 39.9391 52.22L40.2591 51.18ZM34.5191 58.7C35.0791 59.26 35.7791 59.54 36.6191 59.54C37.4724 59.54 38.1791 59.26 38.7391 58.7C39.2991 58.14 39.5791 57.4333 39.5791 56.58C39.5791 55.7267 39.2991 55.02 38.7391 54.46C38.1791 53.9 37.4791 53.62 36.6391 53.62C36.0791 53.62 35.5724 53.7533 35.1191 54.02C34.6791 54.2733 34.3324 54.6267 34.0791 55.08C33.8257 55.52 33.6991 56.02 33.6991 56.58C33.6991 57.4333 33.9724 58.14 34.5191 58.7ZM52.0877 51.2H55.0077V62H52.0877V57.86H48.1677V62H45.2477V51.2H48.1677V55.2H52.0877V51.2ZM61.1463 51.2H66.5263V62H63.7263V58.26H62.0263L59.9463 62H56.8263L59.2463 57.76C58.6596 57.44 58.2063 57.02 57.8863 56.5C57.5796 55.98 57.4263 55.4 57.4263 54.76C57.4263 53.7467 57.7796 52.9 58.4863 52.22C59.1929 51.54 60.0796 51.2 61.1463 51.2ZM61.6862 56.02H63.7263V53.52H61.6862C61.2596 53.52 60.9196 53.64 60.6663 53.88C60.4263 54.1067 60.3063 54.4067 60.3063 54.78C60.3063 55.02 60.3596 55.2333 60.4663 55.42C60.5729 55.6067 60.7263 55.7533 60.9263 55.86C61.1396 55.9667 61.3929 56.02 61.6862 56.02ZM78.1897 51.2V53.82H74.6697V62H71.8097V53.82H68.2897V51.2H78.1897ZM87.8147 51.2H89.4547V62H86.6347V56.28L81.6147 62H79.9547V51.2H82.7747V56.86L87.8147 51.2ZM102.739 56.56C102.739 56.84 102.719 57.1267 102.679 57.42H94.5194C94.6394 58.1533 94.926 58.72 95.3794 59.12C95.846 59.5067 96.4394 59.7 97.1594 59.7C97.6527 59.7 98.0994 59.5933 98.4994 59.38C98.8994 59.1533 99.2127 58.8467 99.4394 58.46H102.519C102.119 59.6333 101.439 60.5667 100.479 61.26C99.5194 61.9533 98.4127 62.3 97.1594 62.3C95.5594 62.3 94.226 61.7533 93.1594 60.66C92.0927 59.5667 91.5594 58.2133 91.5594 56.6C91.5594 55.96 91.646 55.3467 91.8194 54.76C92.006 54.1733 92.266 53.6467 92.5994 53.18C92.946 52.7133 93.346 52.3133 93.7994 51.98C94.2527 51.6333 94.766 51.3667 95.3394 51.18C95.9127 50.9933 96.5194 50.9 97.1594 50.9C98.2394 50.9 99.206 51.1533 100.059 51.66C100.926 52.1667 101.586 52.8533 102.039 53.72C102.506 54.5867 102.739 55.5333 102.739 56.56ZM97.1594 53.38C96.506 53.38 95.9527 53.56 95.4994 53.92C95.0594 54.28 94.7594 54.78 94.5994 55.42H99.8194C99.686 54.98 99.4927 54.6133 99.2394 54.32C98.986 54.0133 98.6794 53.78 98.3194 53.62C97.9727 53.46 97.586 53.38 97.1594 53.38Z" fill="#9F9F9F"/>
<path d="M21.4 75.2H31.16V86H28.26V77.84H24.3V86H21.4V75.2ZM39.0986 86.3C37.9919 86.3 36.9919 86.0533 36.0986 85.56C35.2053 85.0667 34.5053 84.3867 33.9986 83.52C33.5053 82.64 33.2586 81.6667 33.2586 80.6C33.2586 78.96 33.8119 77.6 34.9186 76.52C36.0253 75.44 37.4186 74.9 39.0986 74.9C40.7653 74.9 42.1519 75.44 43.2586 76.52C44.3653 77.6 44.9186 78.96 44.9186 80.6C44.9186 82.2267 44.3586 83.5867 43.2386 84.68C42.1319 85.76 40.7519 86.3 39.0986 86.3ZM39.0986 83.56C39.9386 83.56 40.6253 83.2867 41.1586 82.74C41.6919 82.18 41.9586 81.4667 41.9586 80.6C41.9586 79.7333 41.6919 79.0267 41.1586 78.48C40.6253 77.92 39.9319 77.64 39.0786 77.64C38.2386 77.64 37.5519 77.92 37.0186 78.48C36.4853 79.0267 36.2186 79.7333 36.2186 80.6C36.2186 81.0267 36.2853 81.4267 36.4186 81.8C36.5653 82.1733 36.7653 82.4867 37.0186 82.74C37.2719 82.9933 37.5719 83.1933 37.9186 83.34C38.2786 83.4867 38.6719 83.56 39.0986 83.56ZM56.6492 83.26H57.9692V88.48H55.3292V86H48.5692V88.48H45.9092V83.26H47.0292C47.4426 82.9267 47.7426 82.28 47.9292 81.32C48.1292 80.36 48.3692 78.32 48.6492 75.2H56.6492V83.26ZM51.2092 77.76C51.1026 79.4 50.9626 80.6267 50.7892 81.44C50.6159 82.2533 50.3692 82.86 50.0492 83.26H53.7892V77.76H51.2092ZM65.1533 86.3C64.0466 86.3 63.0466 86.0533 62.1533 85.56C61.2599 85.0667 60.5599 84.3867 60.0533 83.52C59.5599 82.64 59.3133 81.6667 59.3133 80.6C59.3133 78.96 59.8666 77.6 60.9733 76.52C62.0799 75.44 63.4733 74.9 65.1533 74.9C66.8199 74.9 68.2066 75.44 69.3133 76.52C70.4199 77.6 70.9733 78.96 70.9733 80.6C70.9733 82.2267 70.4133 83.5867 69.2933 84.68C68.1866 85.76 66.8066 86.3 65.1533 86.3ZM65.1533 83.56C65.9933 83.56 66.6799 83.2867 67.2133 82.74C67.7466 82.18 68.0133 81.4667 68.0133 80.6C68.0133 79.7333 67.7466 79.0267 67.2133 78.48C66.6799 77.92 65.9866 77.64 65.1333 77.64C64.2933 77.64 63.6066 77.92 63.0733 78.48C62.5399 79.0267 62.2733 79.7333 62.2733 80.6C62.2733 81.0267 62.3399 81.4267 62.4733 81.8C62.6199 82.1733 62.8199 82.4867 63.0733 82.74C63.3266 82.9933 63.6266 83.1933 63.9733 83.34C64.3333 83.4867 64.7266 83.56 65.1533 83.56ZM80.7597 71.5V73.66H75.2597V71.5H80.7597ZM80.9397 75.2H82.5797V86H79.7597V80.28L74.7397 86H73.0797V75.2H75.8997V80.86L80.9397 75.2ZM95.1844 83.26H96.5044V88.48H93.8644V86H87.1044V88.48H84.4444V83.26H85.5644C85.9777 82.9267 86.2777 82.28 86.4644 81.32C86.6644 80.36 86.9044 78.32 87.1844 75.2H95.1844V83.26ZM89.7444 77.76C89.6377 79.4 89.4977 80.6267 89.3244 81.44C89.151 82.2533 88.9044 82.86 88.5844 83.26H92.3244V77.76H89.7444ZM109.028 80.56C109.028 80.84 109.008 81.1267 108.968 81.42H100.808C100.928 82.1533 101.215 82.72 101.668 83.12C102.135 83.5067 102.728 83.7 103.448 83.7C103.942 83.7 104.388 83.5933 104.788 83.38C105.188 83.1533 105.502 82.8467 105.728 82.46H108.808C108.408 83.6333 107.728 84.5667 106.768 85.26C105.808 85.9533 104.702 86.3 103.448 86.3C101.848 86.3 100.515 85.7533 99.4484 84.66C98.3818 83.5667 97.8484 82.2133 97.8484 80.6C97.8484 79.96 97.9351 79.3467 98.1084 78.76C98.2951 78.1733 98.5551 77.6467 98.8884 77.18C99.2351 76.7133 99.6351 76.3133 100.088 75.98C100.542 75.6333 101.055 75.3667 101.628 75.18C102.202 74.9933 102.808 74.9 103.448 74.9C104.528 74.9 105.495 75.1533 106.348 75.66C107.215 76.1667 107.875 76.8533 108.328 77.72C108.795 78.5867 109.028 79.5333 109.028 80.56ZM103.448 77.38C102.795 77.38 102.242 77.56 101.788 77.92C101.348 78.28 101.048 78.78 100.888 79.42H106.108C105.975 78.98 105.782 78.6133 105.528 78.32C105.275 78.0133 104.968 77.78 104.608 77.62C104.262 77.46 103.875 77.38 103.448 77.38ZM119.733 75.2V77.82H116.213V86H113.353V77.82H109.833V75.2H119.733ZM29.16 104.26C29.6533 104.487 30.0333 104.82 30.3 105.26C30.58 105.687 30.72 106.187 30.72 106.76C30.72 107.68 30.3933 108.453 29.74 109.08C29.1 109.693 28.2867 110 27.3 110H21.4V99.2H27.24C28.16 99.2 28.9133 99.46 29.5 99.98C30.1 100.487 30.4 101.14 30.4 101.94C30.4 102.42 30.2867 102.867 30.06 103.28C29.8467 103.68 29.5467 104.007 29.16 104.26ZM27.54 102.42C27.54 102.207 27.4933 102.027 27.4 101.88C27.3067 101.72 27.1733 101.6 27 101.52C26.84 101.427 26.6533 101.38 26.44 101.38H24.26V103.46H26.44C26.76 103.46 27.02 103.36 27.22 103.16C27.4333 102.96 27.54 102.713 27.54 102.42ZM26.58 107.68C26.94 107.68 27.2267 107.587 27.44 107.4C27.6533 107.2 27.76 106.933 27.76 106.6C27.76 106.253 27.6533 105.98 27.44 105.78C27.2267 105.58 26.94 105.48 26.58 105.48H24.26V107.68H26.58ZM41.7044 99.18H43.8844V109.98H41.5844L41.3444 109.02C40.3577 109.873 39.191 110.3 37.8444 110.3C36.2177 110.3 34.8644 109.76 33.7844 108.68C32.7177 107.587 32.1844 106.22 32.1844 104.58C32.1844 102.953 32.7177 101.6 33.7844 100.52C34.8644 99.44 36.2177 98.9 37.8444 98.9C39.2177 98.9 40.3977 99.34 41.3844 100.22L41.7044 99.18ZM35.9644 106.7C36.5244 107.26 37.2244 107.54 38.0644 107.54C38.9177 107.54 39.6244 107.26 40.1844 106.7C40.7444 106.14 41.0244 105.433 41.0244 104.58C41.0244 103.727 40.7444 103.02 40.1844 102.46C39.6244 101.9 38.9244 101.62 38.0844 101.62C37.5244 101.62 37.0177 101.753 36.5644 102.02C36.1244 102.273 35.7777 102.627 35.5244 103.08C35.271 103.52 35.1444 104.02 35.1444 104.58C35.1444 105.433 35.4177 106.14 35.9644 106.7ZM57.873 99.2H60.733V110H46.693V99.2H49.553V107.32H52.333V99.2H55.113V107.32H57.873V99.2ZM74.0089 104.56C74.0089 104.84 73.9889 105.127 73.9489 105.42H65.7889C65.9089 106.153 66.1956 106.72 66.6489 107.12C67.1156 107.507 67.7089 107.7 68.4289 107.7C68.9222 107.7 69.3689 107.593 69.7689 107.38C70.1689 107.153 70.4822 106.847 70.7089 106.46H73.7889C73.3889 107.633 72.7089 108.567 71.7489 109.26C70.7889 109.953 69.6822 110.3 68.4289 110.3C66.8289 110.3 65.4956 109.753 64.4289 108.66C63.3622 107.567 62.8289 106.213 62.8289 104.6C62.8289 103.96 62.9156 103.347 63.0889 102.76C63.2756 102.173 63.5356 101.647 63.8689 101.18C64.2156 100.713 64.6156 100.313 65.0689 99.98C65.5222 99.6333 66.0356 99.3667 66.6089 99.18C67.1822 98.9933 67.7889 98.9 68.4289 98.9C69.5089 98.9 70.4756 99.1533 71.3289 99.66C72.1956 100.167 72.8556 100.853 73.3089 101.72C73.7756 102.587 74.0089 103.533 74.0089 104.56ZM68.4289 101.38C67.7756 101.38 67.2222 101.56 66.7689 101.92C66.3289 102.28 66.0289 102.78 65.8689 103.42H71.0889C70.9556 102.98 70.7622 102.613 70.5089 102.32C70.2556 102.013 69.9489 101.78 69.5889 101.62C69.2422 101.46 68.8556 101.38 68.4289 101.38ZM90.0898 110H87.2698L86.2698 103.5L82.9298 110.02H82.3698L79.0298 103.5L78.0298 110H75.2098L77.0098 99.2H79.5098L82.6498 105.32L85.8298 99.2H88.3098L90.0898 110ZM99.0358 99.2H102.156L97.4358 109.86C96.7691 111.353 96.0891 112.4 95.3958 113C94.7024 113.6 93.7624 113.9 92.5758 113.9H91.3758V111.26H92.3958C93.0891 111.26 93.5824 111.133 93.8758 110.88C94.1691 110.627 94.4891 110.087 94.8358 109.26L94.8758 109.18L90.2958 99.2H93.4758L96.3558 105.84L99.0358 99.2ZM113.784 98.9C115.411 98.9 116.758 99.44 117.824 100.52C118.904 101.6 119.444 102.96 119.444 104.6C119.444 106.24 118.904 107.607 117.824 108.7C116.744 109.78 115.398 110.32 113.784 110.32C112.678 110.32 111.684 110.02 110.804 109.42V113.9H107.884V99.2H109.824L110.324 100.18C111.284 99.3267 112.438 98.9 113.784 98.9ZM111.424 106.72C111.984 107.28 112.684 107.56 113.524 107.56C114.378 107.56 115.084 107.28 115.644 106.72C116.204 106.16 116.484 105.453 116.484 104.6C116.484 104.04 116.358 103.533 116.104 103.08C115.851 102.627 115.498 102.273 115.044 102.02C114.604 101.767 114.104 101.64 113.544 101.64C112.984 101.64 112.478 101.767 112.024 102.02C111.571 102.273 111.218 102.627 110.964 103.08C110.724 103.533 110.604 104.04 110.604 104.6C110.604 105.453 110.878 106.16 111.424 106.72ZM131.997 104.56C131.997 104.84 131.977 105.127 131.937 105.42H123.777C123.897 106.153 124.184 106.72 124.637 107.12C125.104 107.507 125.697 107.7 126.417 107.7C126.911 107.7 127.357 107.593 127.757 107.38C128.157 107.153 128.471 106.847 128.697 106.46H131.777C131.377 107.633 130.697 108.567 129.737 109.26C128.777 109.953 127.671 110.3 126.417 110.3C124.817 110.3 123.484 109.753 122.417 108.66C121.351 107.567 120.817 106.213 120.817 104.6C120.817 103.96 120.904 103.347 121.077 102.76C121.264 102.173 121.524 101.647 121.857 101.18C122.204 100.713 122.604 100.313 123.057 99.98C123.511 99.6333 124.024 99.3667 124.597 99.18C125.171 98.9933 125.777 98.9 126.417 98.9C127.497 98.9 128.464 99.1533 129.317 99.66C130.184 100.167 130.844 100.853 131.297 101.72C131.764 102.587 131.997 103.533 131.997 104.56ZM126.417 101.38C125.764 101.38 125.211 101.56 124.757 101.92C124.317 102.28 124.017 102.78 123.857 103.42H129.077C128.944 102.98 128.751 102.613 128.497 102.32C128.244 102.013 127.937 101.78 127.577 101.62C127.231 101.46 126.844 101.38 126.417 101.38ZM139.856 99.64C141.442 99.64 142.716 100.12 143.676 101.08C144.636 102.04 145.116 103.3 145.116 104.86C145.116 106.5 144.596 107.82 143.556 108.82C142.516 109.807 141.136 110.3 139.416 110.3C137.562 110.3 136.129 109.733 135.116 108.6C134.102 107.453 133.596 105.84 133.596 103.76C133.596 101.373 134.109 99.4933 135.136 98.12C136.176 96.7333 137.789 95.7667 139.976 95.22L143.576 94.34V97.2L139.996 98.08C138.222 98.52 137.176 99.3667 136.856 100.62C137.749 99.9667 138.749 99.64 139.856 99.64ZM137.436 106.82C137.956 107.34 138.609 107.6 139.396 107.6C140.196 107.6 140.856 107.34 141.376 106.82C141.896 106.3 142.156 105.64 142.156 104.84C142.156 104.04 141.896 103.38 141.376 102.86C140.856 102.327 140.202 102.06 139.416 102.06C138.882 102.06 138.402 102.18 137.976 102.42C137.562 102.66 137.236 102.993 136.996 103.42C136.769 103.833 136.656 104.307 136.656 104.84C136.656 105.64 136.916 106.3 137.436 106.82ZM151.36 95.04V97.8H148.26V95.04H151.36ZM155.96 95.04V97.8H152.88V95.04H155.96ZM157.72 104.56C157.72 104.84 157.7 105.127 157.66 105.42H149.5C149.62 106.153 149.907 106.72 150.36 107.12C150.827 107.507 151.42 107.7 152.14 107.7C152.633 107.7 153.08 107.593 153.48 107.38C153.88 107.153 154.193 106.847 154.42 106.46H157.5C157.1 107.633 156.42 108.567 155.46 109.26C154.5 109.953 153.393 110.3 152.14 110.3C150.54 110.3 149.207 109.753 148.14 108.66C147.073 107.567 146.54 106.213 146.54 104.6C146.54 103.96 146.627 103.347 146.8 102.76C146.987 102.173 147.247 101.647 147.58 101.18C147.927 100.713 148.327 100.313 148.78 99.98C149.233 99.6333 149.747 99.3667 150.32 99.18C150.893 98.9933 151.5 98.9 152.14 98.9C153.22 98.9 154.187 99.1533 155.04 99.66C155.907 100.167 156.567 100.853 157.02 101.72C157.487 102.587 157.72 103.533 157.72 104.56ZM152.14 101.38C151.487 101.38 150.933 101.56 150.48 101.92C150.04 102.28 149.74 102.78 149.58 103.42H154.8C154.6 102.767 154.267 102.267 153.8 101.92C153.347 101.56 152.793 101.38 152.14 101.38ZM166.638 99.2H169.558V110H166.638V105.86H162.718V110H159.798V99.2H162.718V103.2H166.638V99.2ZM182.277 110H178.757L175.277 104.84V110H172.357V99.2H175.277V104L178.557 99.2H181.877L178.217 104.36L182.277 110ZM191.008 99.2H194.128L189.408 109.86C188.742 111.353 188.062 112.4 187.368 113C186.675 113.6 185.735 113.9 184.548 113.9H183.348V111.26H184.368C185.062 111.26 185.555 111.133 185.848 110.88C186.142 110.627 186.462 110.087 186.808 109.26L186.848 109.18L182.268 99.2H185.448L188.328 105.84L191.008 99.2Z" fill="#272727"/>
</g>
<defs>
<clipPath id="clip0_19_347">
<rect width="345" height="136" rx="20" fill="white"/>
</clipPath>
<clipPath id="clip1_19_347">
<rect width="345" height="136" fill="white"/>
</clipPath>
<clipPath id="clip2_19_347">
<rect width="149" height="111" fill="white" transform="translate(181 25)"/>
</clipPath>
</defs>
</svg>
