<svg width="25" height="49" viewBox="0 0 25 49" fill="none" xmlns="http://www.w3.org/2000/svg">
<path d="M20.1565 43.7817C20.2595 44.4105 20.3625 45.0445 20.4601 45.6733C18.3192 46.344 17.2677 46.7685 17.3111 46.9466C17.3653 47.1667 19.078 47.0043 22.4492 46.475C22.254 45.4794 22.0643 44.4838 21.8692 43.4882C21.2947 43.5825 20.7256 43.6821 20.1565 43.7817Z" fill="black"/>
<path d="M15.5496 22.7273C15.5117 23.4399 15.4575 24.4565 15.4087 25.6879C15.3599 26.9927 15.3328 27.6739 15.3383 28.5123C15.3383 28.8738 15.3545 30.3463 15.5496 32.2432C15.7122 33.8414 15.967 36.2308 16.8721 39.1704C17.2298 40.3337 17.7826 41.8953 18.6444 43.6769C19.0401 43.7345 19.5062 43.7659 20.0373 43.745C21.0346 43.6978 21.8421 43.462 22.4004 43.2419C22.2378 42.7284 22.0102 42 21.7717 41.125C21.4519 39.9407 20.5305 36.3723 20.1728 31.5777C19.994 29.1673 19.9289 26.1595 20.2433 22.7011C18.6823 22.7063 17.116 22.7168 15.5496 22.7273Z" fill="white"/>
<path opacity="0.09" d="M20.1078 23.1308C20.0048 23.5081 19.8693 24.053 19.723 24.7133C19.3436 26.4582 18.9533 28.9472 18.9913 33.1549C19.0129 35.7435 19.2026 39.3224 19.8964 43.6454C20.1674 43.6192 20.4438 43.5878 20.7311 43.5459C21.3327 43.4568 21.8909 43.3415 22.4004 43.2105C22.1727 42.4979 21.8584 41.4394 21.5332 40.1503C20.3788 35.5548 20.0536 31.6563 19.9668 29.0834C19.9181 27.5534 19.9181 25.5255 20.1078 23.1308Z" fill="#606060"/>
<path d="M20.124 22.8635C19.582 28.1664 19.9181 33.5479 21.1159 38.7512C21.4573 40.2289 21.8638 41.6856 22.3408 43.1266C22.3733 43.221 22.5305 43.1791 22.4979 43.0847C20.8286 38.0176 19.9939 32.7043 20.0373 27.3857C20.0481 25.8765 20.1349 24.3622 20.2866 22.8583C20.2975 22.764 20.1349 22.764 20.124 22.8635Z" fill="#161616"/>
<path d="M15.3274 27.5638C15.1269 31.8606 15.7502 36.1836 17.1485 40.2656C17.5388 41.4079 17.994 42.5293 18.5089 43.6245C18.5523 43.7188 18.6932 43.6349 18.6498 43.5459C16.8342 39.6421 15.7665 35.4238 15.5117 31.1532C15.4413 29.9585 15.4358 28.7638 15.49 27.5638C15.4955 27.459 15.3329 27.4643 15.3274 27.5638Z" fill="#161616"/>
<path d="M18.574 43.6716C18.7582 43.8707 19.181 43.8236 19.4303 43.8288C19.8097 43.8341 20.1945 43.7974 20.5685 43.745C20.975 43.6873 21.3815 43.6035 21.7825 43.5092C21.9831 43.462 22.4004 43.4515 22.5034 43.2367C22.5468 43.1476 22.4058 43.0638 22.3625 43.1581C22.3137 43.2681 22.0427 43.2891 21.9397 43.3101C21.788 43.3467 21.6416 43.3782 21.4899 43.4149C21.2026 43.4777 20.9208 43.5354 20.6335 43.5773C20.3354 43.6245 20.0373 43.6559 19.7392 43.6664C19.5116 43.6769 18.8612 43.745 18.6932 43.5616C18.6173 43.483 18.5035 43.5983 18.574 43.6716Z" fill="#161616"/>
<path d="M13.9508 22.6958C13.7936 23.026 13.5822 23.6548 13.4305 24.2102C13.2408 24.9176 13.192 25.3421 13.0836 25.9604C12.8831 27.1027 12.7476 27.2966 12.4549 28.5489C12.146 29.8904 12.005 30.9227 11.8966 31.7454C11.8099 32.3846 11.6528 33.6894 11.5823 35.3767C11.5498 36.105 11.5335 36.5347 11.5498 37.1268C11.5931 38.987 11.9021 40.4281 12.0376 40.994C12.4007 42.5503 12.9318 43.8812 13.463 44.9607C13.7069 45.0812 14.0754 45.2331 14.5416 45.3327C15.1161 45.4532 15.8532 45.6104 16.5578 45.2646C16.7529 45.1703 17.1973 44.9083 17.5333 44.2899C17.2732 43.6035 16.9534 42.6289 16.6987 41.4341C16.07 38.4683 16.2976 36.1208 16.4548 34.6431C16.7474 31.8502 17.4195 29.7541 18.574 26.1385C18.9642 24.9229 19.3111 23.9377 19.5495 23.2827C19.6308 22.764 19.8205 21.2077 18.9588 20.5579C17.6959 19.5938 14.7529 21.0243 13.9508 22.6958Z" fill="white"/>
<path opacity="0.08" d="M18.7853 25.4835C18.4331 26.0233 17.9453 26.825 17.4629 27.8363C16.8667 29.0834 15.9887 31.2738 15.5172 35.6387C15.257 38.0229 15.0836 41.3608 15.4846 45.3903C15.6527 45.4061 16.3681 45.4637 16.9805 44.9869C17.2949 44.7406 17.4575 44.4576 17.5388 44.2795C17.2732 43.5721 16.9317 42.5345 16.6716 41.2507C15.902 37.5094 16.3843 34.5016 16.742 32.4056C17.0347 30.6554 17.6038 28.2398 18.7853 25.4835Z" fill="#606060"/>
<path d="M14.8017 45.3222C14.986 45.9615 15.1703 46.606 15.3545 47.2453C12.4495 48.0994 11.0241 48.6339 11.0728 48.8435C11.127 49.0846 13.1053 48.9064 17.0076 48.309C16.9046 47.282 16.8017 46.2602 16.7041 45.2332C16.0646 45.2594 15.4304 45.2908 14.8017 45.3222Z" fill="black"/>
<path d="M13.8912 22.7587C13.3167 24.1631 13.024 25.6512 12.7151 27.1289C12.3899 28.6747 12.0755 30.2205 11.8479 31.782C11.4251 34.6745 11.295 37.6351 11.875 40.5171C12.1839 42.0682 12.7042 43.5773 13.4684 44.9711C13.5172 45.0602 13.6581 44.9816 13.6093 44.8925C10.7097 39.5634 11.5877 33.3278 12.7693 27.6739C13.1107 26.0337 13.4142 24.3622 14.0538 22.8007C14.0863 22.7063 13.9291 22.6644 13.8912 22.7587Z" fill="#161616"/>
<path d="M18.7149 25.4731C16.8992 30.1524 15.6852 35.1828 16.3897 40.1975C16.5849 41.5808 16.9263 42.938 17.4249 44.248C17.4629 44.3423 17.6201 44.3004 17.5821 44.2061C15.7773 39.4953 16.1458 34.3287 17.5008 29.555C17.891 28.1874 18.3572 26.8407 18.872 25.5097C18.91 25.4154 18.7528 25.3787 18.7149 25.4731Z" fill="#161616"/>
<path d="M13.4847 44.9659C14.2489 45.3746 15.1269 45.5475 15.9941 45.4375C16.7041 45.3432 17.5279 45.0288 17.5984 44.2375C17.6092 44.138 17.4466 44.138 17.4358 44.2375C17.3599 45.0602 16.3301 45.2803 15.631 45.3117C14.9101 45.3432 14.2001 45.1703 13.5714 44.8297C13.4739 44.7825 13.3926 44.9187 13.4847 44.9659Z" fill="#161616"/>
<path d="M15.0673 9.04038C14.921 9.20806 14.715 9.46482 14.5199 9.80542C13.8532 10.9373 13.8099 12.0481 13.799 13.0228C13.7882 14.4428 13.7774 15.1555 13.9345 16.7013C14.0809 18.1475 14.1188 20.2226 13.5931 22.8688C14.0646 23.2041 14.7529 23.5919 15.6526 23.7962C18.2433 24.3831 20.3896 22.9212 20.7961 22.6382C20.2812 19.7195 19.9994 17.3825 19.8368 15.7423C19.7338 14.7048 19.3544 13.1957 18.6011 10.1722C18.3734 9.24998 18.1404 8.36966 17.4358 8.11813C16.4602 7.76181 15.2624 8.85698 15.0673 9.04038Z" fill="#EC615B"/>
<path opacity="0.1" d="M17.4087 8.1915C17.4954 8.5321 17.6201 9.04562 17.7447 9.67966C17.9073 10.4971 18.1241 11.7337 18.2759 13.573C18.433 15.4699 18.6119 19.0278 18.6661 23.6286C19.0347 23.5238 19.4791 23.3666 19.9506 23.1151C20.265 22.9474 20.536 22.7692 20.7636 22.6015C20.7257 22.1981 20.6552 21.585 20.5414 20.8461C20.395 19.9186 20.2487 19.2741 20.1782 18.9545C20.0048 18.1266 19.8097 16.8899 19.788 15.1712C19.5658 14.2594 19.3978 13.5258 19.284 13.0385C18.9696 11.6551 18.8775 11.1469 18.639 10.3085C18.4005 9.46482 18.1512 8.7941 17.994 8.39062C17.7989 8.31726 17.6038 8.25438 17.4087 8.1915Z" fill="#606060"/>
<path d="M15.0618 9.54343C15.1106 9.63775 15.1919 9.66919 15.3708 9.75303C15.5225 9.82639 15.6689 9.91547 15.8206 9.97835C16.2867 10.1722 16.8341 11.0316 16.9209 11.1678C17.2515 11.6866 17.6363 12.2944 17.8585 13.1748C17.9181 13.4053 18.0536 14.0027 17.8964 16.0201C17.7284 18.0899 17.5116 18.3781 17.6796 19.4104C17.8043 20.1597 17.9615 21.0557 18.7257 21.5431C19.4357 21.9937 20.2541 21.8365 20.4221 21.8051C21.4519 21.6112 22.0372 20.8409 22.6063 20.0916C23.4735 18.9545 23.8041 17.8174 23.945 17.1572C24.0101 16.848 23.9992 15.9415 23.983 14.1337C23.9613 12.2682 23.9288 11.6237 23.4247 11.0787C23.0833 10.7119 22.666 10.539 22.3787 10.4499C22.4004 10.3347 22.4058 10.1617 22.3082 10.015C22.124 9.74255 21.685 9.74779 21.4031 9.75303C20.1945 9.78447 19.2948 10.5705 19.2514 10.6071C18.4981 11.2831 18.2758 12.111 18.2054 12.4569C18.0536 11.8071 17.8043 11.3093 17.6092 10.9897C17.4412 10.7119 17.1919 10.429 16.6878 9.85259C16.2922 9.40195 16.1025 9.22902 15.8044 9.1347C15.7393 9.11374 15.2461 8.97226 15.0835 9.1871C15.0076 9.28666 15.0076 9.43863 15.0618 9.54343Z" fill="white"/>
<path opacity="0.11" d="M15.0239 9.34954C15.0564 9.2919 15.4196 9.4229 15.4575 9.43862C15.9941 9.63774 16.471 10.0517 17.0835 11.0106C17.3978 11.5032 17.7935 12.2001 18.1295 13.1066C18.368 12.8708 18.5685 12.6769 18.7257 12.5302C18.7257 12.5302 19.3056 11.9905 20.2433 11.4665C20.3354 11.4141 20.4492 11.3512 20.5305 11.3984C20.6985 11.4875 20.5197 11.9224 20.5684 12.3259C20.6064 12.6298 20.7907 13.049 21.4898 13.5153C21.5061 13.6044 21.5115 13.7302 21.4356 13.814C21.2839 13.9765 20.8936 13.8455 20.6931 13.7773C20.3679 13.6673 19.7392 13.3791 18.9967 12.5355C18.9262 12.8079 18.8341 13.1957 18.7636 13.6725C18.6986 14.0865 18.5197 15.4646 18.8178 17.2358C18.9371 17.9379 19.1593 18.8759 19.6145 19.9448C19.8151 20.0287 20.0698 20.1073 20.3733 20.1544C21.0075 20.2488 21.5332 20.1282 21.8367 20.0339C21.6578 20.1178 21.4139 20.2592 21.2026 20.5055C20.9478 20.8042 20.9424 21.0295 20.731 21.3072C20.5901 21.4959 20.3354 21.7317 19.8639 21.8994C19.7175 21.8836 19.4953 21.847 19.2514 21.7422C18.5089 21.4225 18.1729 20.7466 18.0211 20.4322C17.8206 20.0077 17.5116 19.1484 17.8043 16.2402C17.9723 14.5791 18.1566 14.0603 17.8748 13.1119C17.658 12.3835 17.284 11.7809 17.1539 11.5765C16.9209 11.2097 16.5035 10.5547 15.7448 9.95214C15.387 9.6587 14.9914 9.41766 15.0239 9.34954Z" fill="#606060"/>
<path d="M21.0671 10.5233C20.9695 10.6491 20.8449 10.8325 20.7473 11.0735C20.6931 11.215 20.5631 11.5451 20.5956 11.9643C20.6552 12.7975 21.2731 13.3058 21.3869 13.3948C21.4628 13.4525 21.5278 13.4996 21.5712 13.5258C21.5061 13.7407 21.4302 14.0603 21.4031 14.4533C21.3598 15.0088 21.3164 15.6323 21.6525 15.8157C21.8693 15.931 22.1945 15.8524 22.3733 15.6847C22.4167 15.6428 22.5413 15.5118 22.5738 14.9197C22.6118 14.2175 22.46 13.9241 22.6768 13.7197C22.769 13.6254 22.9261 13.5678 23.0616 13.5101C23.2134 13.4472 23.3489 13.4158 23.4465 13.3948C23.3868 13.8245 23.3435 14.207 23.311 14.5162C23.273 14.8987 23.2568 15.0926 23.3923 15.2131C23.5169 15.3232 23.7229 15.3441 23.8801 15.276C24.086 15.1869 24.151 14.9406 24.2649 14.4481C24.357 14.0603 24.4329 13.7354 24.3841 13.2953C24.357 13.07 24.3082 12.8866 24.2649 12.7608C24.254 12.6717 24.2269 12.5407 24.1836 12.3888C24.0914 12.0848 24.0047 11.9958 23.9505 11.8019C23.8692 11.5242 23.9614 11.3879 23.983 11.0735C24.0047 10.8272 23.983 10.4761 23.7988 10.036C23.7283 10.0412 23.582 10.0517 23.4302 10.1513C23.2459 10.2665 23.17 10.4342 23.1429 10.4919C23.002 10.4604 22.7473 10.429 22.4546 10.5076C21.9506 10.6386 21.685 11.0001 21.6145 11.1102C21.7554 10.8115 21.6362 10.5181 21.4465 10.4447C21.2839 10.3766 21.0888 10.5128 21.0671 10.5233Z" fill="black"/>
<path d="M21.6796 12.1477C21.7338 12.0481 22.0048 11.8281 22.0969 12.0115C22.1402 12.1005 22.2812 12.0219 22.2378 11.9329C22.1782 11.8123 22.0318 11.7757 21.9018 11.8019C21.7446 11.8281 21.6145 11.9329 21.5386 12.0691C21.4899 12.1582 21.6308 12.2368 21.6796 12.1477Z" fill="white"/>
<path d="M23.2676 11.7442C23.3001 11.6761 23.3326 11.5975 23.3868 11.5451C23.441 11.4927 23.6036 11.4351 23.609 11.5556C23.6144 11.6551 23.777 11.6551 23.7716 11.5556C23.7608 11.4036 23.6253 11.3041 23.4681 11.325C23.2893 11.3565 23.1971 11.5137 23.1267 11.6604C23.0833 11.7547 23.2242 11.8385 23.2676 11.7442Z" fill="white"/>
<path d="M23.3109 12.242C23.3109 12.2473 23.3109 12.2525 23.3109 12.2577C23.3001 12.2682 23.2893 12.2787 23.2838 12.2839C23.2567 12.2997 23.2134 12.2839 23.2188 12.2525C23.2188 12.2525 23.2188 12.2368 23.2242 12.242L23.208 12.2577C23.2459 12.2577 23.2838 12.2577 23.3218 12.2577C23.3164 12.2525 23.3164 12.2525 23.3109 12.2473C23.3164 12.2525 23.3164 12.2525 23.3164 12.2525C23.3109 12.2473 23.3164 12.2473 23.3164 12.2577C23.3218 12.2892 23.3055 12.3102 23.2622 12.3259C23.2459 12.3206 23.2351 12.3206 23.2188 12.3154C23.1971 12.3049 23.2025 12.2735 23.208 12.2577C23.2134 12.2525 23.208 12.2525 23.2025 12.263C23.208 12.2577 23.208 12.2577 23.2025 12.263C23.1646 12.2892 23.1483 12.3311 23.1754 12.373C23.1971 12.4045 23.2513 12.4254 23.2893 12.3992C23.3272 12.373 23.3651 12.3364 23.3706 12.2839C23.3706 12.2263 23.3272 12.1739 23.2676 12.1739C23.208 12.1739 23.1646 12.2106 23.1592 12.2682C23.1538 12.3102 23.1809 12.3468 23.208 12.373C23.2405 12.4045 23.2893 12.3992 23.3218 12.373C23.3922 12.3206 23.4085 12.2106 23.3272 12.1582C23.2893 12.1372 23.2405 12.132 23.2025 12.1529C23.1538 12.1791 23.1483 12.242 23.1592 12.2892C23.1646 12.3311 23.2188 12.3521 23.2567 12.3416C23.3001 12.3259 23.3164 12.284 23.3109 12.242Z" fill="white"/>
<path d="M22.4438 12.4045C22.2866 12.4935 22.0752 12.4516 21.9722 12.3049C21.9126 12.2211 21.7717 12.2997 21.8313 12.3835C21.9885 12.5983 22.2866 12.6717 22.5305 12.5407C22.6172 12.4883 22.5359 12.3521 22.4438 12.4045Z" fill="white"/>
<path d="M22.3245 12.7451C22.2053 12.8342 22.1023 12.9494 22.0318 13.0804C21.9831 13.1695 22.124 13.2481 22.1728 13.159C22.2378 13.0385 22.3299 12.939 22.4438 12.8551C22.4763 12.8289 22.4709 12.7713 22.4438 12.7451C22.4058 12.7136 22.357 12.7189 22.3245 12.7451Z" fill="white"/>
<path d="M23.6415 12.1687C23.7499 12.0482 23.8312 11.9119 23.8854 11.76C23.9179 11.6656 23.7608 11.6237 23.7283 11.718C23.6849 11.8438 23.6144 11.9591 23.5277 12.0586C23.4627 12.1372 23.5765 12.2473 23.6415 12.1687Z" fill="white"/>
<path d="M23.6524 12.3678C23.7825 12.3416 23.9342 12.3101 24.0372 12.4149C24.1077 12.4883 24.2215 12.3783 24.151 12.3049C24.0047 12.1529 23.7933 12.1791 23.6036 12.2211C23.5061 12.2368 23.5494 12.3887 23.6524 12.3678Z" fill="white"/>
<path d="M14.9968 9.4229C15.2461 9.04562 15.8369 9.27094 16.135 9.45958C16.4927 9.67966 16.7637 10.0098 17.0076 10.3399C17.5008 11.0054 17.9398 11.7285 18.1024 12.5407C18.1241 12.6403 18.2813 12.5983 18.2596 12.4988C18.0699 11.5294 17.4845 10.5967 16.8233 9.85258C16.4385 9.4229 15.3491 8.6107 14.8559 9.34954C14.8017 9.42814 14.9426 9.51198 14.9968 9.4229Z" fill="#161616"/>
<path d="M15.3329 9.77923C16.6336 10.4866 17.3653 11.8124 17.7339 13.1643C17.761 13.2638 17.9181 13.2219 17.891 13.1224C17.5116 11.7338 16.7474 10.3661 15.4142 9.64299C15.322 9.59059 15.2407 9.72683 15.3329 9.77923Z" fill="#161616"/>
<path d="M18.2596 12.4726C18.3951 11.5451 19.0075 10.7696 19.8476 10.3242C20.2812 10.0936 20.7636 9.95214 21.2568 9.88402C21.4898 9.85258 21.7608 9.82114 21.9885 9.90498C22.2378 9.99406 22.4763 10.3766 22.1619 10.5495C22.0698 10.5967 22.1511 10.7329 22.2432 10.6857C22.5901 10.4971 22.5034 10.015 22.1999 9.83162C21.7283 9.54342 20.9479 9.74778 20.4655 9.90498C19.2731 10.277 18.2867 11.2097 18.1078 12.4412C18.0861 12.5302 18.2433 12.5722 18.2596 12.4726Z" fill="#161616"/>
<path d="M18.6227 12.7084C18.8883 12.4097 19.2243 12.1582 19.5495 11.9224C19.8639 11.6918 20.1999 11.5032 20.5902 11.4193C20.6931 11.3984 20.6498 11.2464 20.5468 11.2674C20.1457 11.3565 19.7934 11.5503 19.4682 11.7861C19.1322 12.0324 18.7853 12.2892 18.5089 12.5983C18.4385 12.6717 18.5523 12.787 18.6227 12.7084Z" fill="#161616"/>
<path d="M20.6118 11.4351C20.7257 11.1835 20.872 10.9425 21.0508 10.7277C21.0834 10.691 21.1213 10.6281 21.1647 10.6019C21.2026 10.5338 21.2514 10.5285 21.3218 10.5914C21.4085 10.5914 21.4465 10.6229 21.4465 10.6962C21.5061 10.8063 21.5115 10.9949 21.5332 11.1207C21.5549 11.2202 21.712 11.1783 21.6904 11.0787C21.647 10.8796 21.5928 10.167 21.2026 10.3609C21.0508 10.4342 20.937 10.6176 20.8395 10.7434C20.6931 10.9373 20.5739 11.1416 20.4709 11.3565C20.4276 11.4455 20.5685 11.5294 20.6118 11.4351Z" fill="#161616"/>
<path d="M21.6579 11.1678C21.9343 10.822 22.498 10.3451 22.9803 10.6019C23.0725 10.6491 23.1538 10.5128 23.0616 10.4657C22.5034 10.1775 21.8747 10.6491 21.5387 11.0578C21.479 11.1364 21.5928 11.2464 21.6579 11.1678Z" fill="#161616"/>
<path d="M23.1375 10.5757C23.2134 10.4604 23.5657 10.0465 23.7174 10.1565C23.7987 10.2141 23.815 10.4185 23.8367 10.5128C23.8692 10.6595 23.88 10.8063 23.8855 10.9582C23.8909 11.0578 24.0535 11.0578 24.0481 10.9582C24.0426 10.7486 24.0155 10.5443 23.9613 10.3399C23.9288 10.2246 23.9017 10.0045 23.7608 9.96786C23.6307 9.93642 23.4519 10.0569 23.3543 10.1251C23.208 10.2246 23.0941 10.3504 23.002 10.4971C22.9424 10.5809 23.0833 10.6595 23.1375 10.5757Z" fill="#161616"/>
<path d="M18.8341 12.4516C19.2081 12.8027 19.6037 13.1276 20.0265 13.421C20.4438 13.7092 20.8503 13.9136 21.3761 13.8874C21.479 13.8821 21.479 13.7249 21.3761 13.7302C20.8395 13.7564 20.4438 13.5258 20.0265 13.2324C19.6417 12.9599 19.284 12.6612 18.9425 12.3416C18.8721 12.2735 18.7582 12.3835 18.8341 12.4516Z" fill="#161616"/>
<path d="M17.7393 12.9913C18.33 15.5275 16.7908 18.2995 18.0645 20.7256C18.3029 21.1815 18.6661 21.5954 19.1647 21.7998C19.6525 21.9989 20.2162 21.9832 20.7202 21.826C21.8367 21.4802 22.5576 20.4793 23.1104 19.5361C23.4627 18.944 23.7554 18.31 23.9288 17.6445C24.0155 17.3144 24.0697 16.9685 24.086 16.6279C24.1022 16.2349 24.048 15.8419 24.0643 15.4489C24.0697 15.3493 23.9071 15.3493 23.9017 15.4489C23.88 16.0882 23.9667 16.696 23.8367 17.3301C23.7228 17.896 23.5115 18.4462 23.2459 18.9597C22.7527 19.9239 22.086 21.0086 21.0617 21.5168C20.5305 21.7788 19.8747 21.8784 19.3056 21.674C18.7474 21.4749 18.3788 20.9981 18.1403 20.4898C17.6309 19.3842 17.6905 18.1266 17.826 16.9528C17.9777 15.6218 18.2162 14.2751 17.9073 12.9442C17.8693 12.8551 17.7122 12.8918 17.7393 12.9913Z" fill="#161616"/>
<path d="M20.1511 18.2366C19.8476 18.7501 19.6471 19.3056 19.5604 19.8924C19.5441 19.992 19.7013 20.0339 19.7176 19.9344C19.8043 19.358 19.994 18.8182 20.2921 18.3152C20.3463 18.2314 20.2053 18.1528 20.1511 18.2366Z" fill="#161616"/>
<path d="M20.2541 18.2942C21.0563 18.2261 21.9018 18.0794 22.7039 18.1632C22.8069 18.1737 22.8069 18.0165 22.7039 18.006C21.9018 17.917 21.0563 18.0689 20.2541 18.137C20.1511 18.1475 20.1511 18.3047 20.2541 18.2942Z" fill="#161616"/>
<path d="M19.6417 20.0339C20.0373 20.2592 20.498 20.2383 20.9424 20.2278C21.4085 20.2121 21.8747 20.1597 22.2812 19.9239C22.3733 19.8715 22.2866 19.7352 22.1999 19.7876C21.815 20.013 21.3814 20.0549 20.9424 20.0706C20.5305 20.0863 20.0969 20.1125 19.723 19.9029C19.6362 19.8505 19.5549 19.9868 19.6417 20.0339Z" fill="#161616"/>
<path d="M22.628 18.1266C22.5251 18.703 22.3679 19.2584 22.1565 19.8034C22.1186 19.8977 22.2757 19.9396 22.3137 19.8453C22.5305 19.3003 22.6877 18.7396 22.7852 18.1685C22.8015 18.0689 22.6443 18.027 22.628 18.1266Z" fill="#161616"/>
<path d="M20.1078 18.5091C20.3733 19.075 21.1267 19.2165 21.7066 19.2217C21.8096 19.2217 21.8096 19.0645 21.7066 19.0645C21.1863 19.054 20.4872 18.9388 20.2487 18.4252C20.2053 18.3362 20.0644 18.42 20.1078 18.5091Z" fill="#161616"/>
<path d="M21.2785 19.0174C21.2622 19.1484 21.2459 19.2794 21.2297 19.4051C21.2188 19.5047 21.3814 19.5047 21.3923 19.4051C21.4085 19.2741 21.4248 19.1431 21.4411 19.0174C21.4519 18.9178 21.2893 18.9178 21.2785 19.0174Z" fill="#161616"/>
<path d="M21.5874 19.0174C21.5711 19.1484 21.5549 19.2794 21.544 19.4104C21.5332 19.5099 21.6958 19.5099 21.7066 19.4104C21.7229 19.2794 21.7392 19.1484 21.75 19.0174C21.7608 18.9178 21.5982 18.9178 21.5874 19.0174Z" fill="#161616"/>
<path d="M21.7283 19.2375C22.1132 19.1536 22.4329 18.923 22.6335 18.5982C22.6877 18.5091 22.5467 18.4305 22.4925 18.5196C22.3083 18.813 22.0264 19.0069 21.685 19.0855C21.582 19.1117 21.6254 19.2637 21.7283 19.2375Z" fill="#161616"/>
<path d="M20.5414 11.1521C20.3788 12.0796 20.5576 13.1852 21.5386 13.6097C21.6308 13.6516 21.7175 13.5153 21.6199 13.4734C20.704 13.0752 20.5468 12.0534 20.6985 11.194C20.7148 11.0945 20.5576 11.0525 20.5414 11.1521Z" fill="#161616"/>
<path d="M23.8746 10.9006C23.8855 11.1993 23.88 11.5032 23.9234 11.7966C23.9668 12.1163 24.2648 12.4726 24.1077 12.7922C24.0643 12.8813 24.2052 12.9651 24.2486 12.8708C24.3895 12.5826 24.2648 12.3416 24.1619 12.0586C24.0264 11.6971 24.0589 11.2779 24.0426 10.8953C24.0318 10.7958 23.8692 10.7958 23.8746 10.9006Z" fill="#161616"/>
<path d="M21.9831 13.4996C22.2215 13.3791 22.4925 13.5049 22.5467 13.7564C22.5521 13.7826 22.5901 13.7721 22.5847 13.7459C22.5196 13.4682 22.2215 13.332 21.9614 13.463C21.9397 13.4787 21.9614 13.5154 21.9831 13.4996Z" fill="white"/>
<path d="M22.395 13.7669C22.4329 13.8088 22.46 13.8559 22.4763 13.9083C22.4871 13.9345 22.5251 13.9241 22.5142 13.8979C22.4926 13.8402 22.46 13.7878 22.4221 13.7407C22.4058 13.7197 22.3733 13.7511 22.395 13.7669Z" fill="white"/>
<path d="M23.4844 13.4001C23.5331 13.1852 23.674 13.0071 23.88 12.9075C23.9017 12.897 23.8854 12.8603 23.8583 12.8761C23.6415 12.9756 23.4952 13.1643 23.4464 13.3896C23.441 13.4158 23.4789 13.4263 23.4844 13.4001Z" fill="white"/>
<path d="M13.94 2.29124C13.566 2.47464 13.2516 2.82048 13.1107 2.97244C12.7639 3.35497 12.585 3.71129 12.3899 4.10953C12.2273 4.43441 12.0376 4.89553 11.8858 5.47193C12.0972 5.50861 12.3086 5.54005 12.52 5.57673C12.5091 5.77585 12.5091 6.06929 12.5904 6.41513C12.6663 6.72953 12.791 7.23258 13.2245 7.58366C13.8207 8.07622 14.612 7.9557 14.7584 7.93474C14.7692 8.18102 14.8234 8.5321 15.0294 8.89366C15.0836 8.98274 15.1378 9.06658 15.192 9.13994C15.4901 9.0561 15.9507 8.88318 16.4006 8.52686C17.5496 7.63082 17.7068 6.29461 17.7556 5.90685C17.826 5.30949 17.9615 4.18289 17.1973 3.25017C16.4006 2.286 14.8885 1.83012 13.94 2.29124Z" fill="white"/>
<path d="M12.8289 3.38117C12.9806 3.16108 13.2733 2.8362 13.6039 2.61088C14.1351 2.24932 14.3736 2.40128 14.6445 2.08164C14.8397 1.85108 14.9643 1.4738 14.818 1.29564C14.5849 1.01268 13.7557 1.35328 13.6473 1.40044C13.4088 1.5 12.6229 1.81964 12.3086 2.6266C12.0484 3.30257 12.2219 4.04141 12.3411 4.05713C12.3736 4.06237 12.3953 4.00997 12.5687 3.75321C12.65 3.62221 12.7422 3.50169 12.8289 3.38117Z" fill="#FEA300"/>
<path d="M14.0104 1.80392C13.9671 1.94016 13.902 2.21264 14.1188 2.74712C14.5036 3.70605 15.4033 4.56541 15.8532 4.40821C15.9507 4.37153 16.0537 4.27721 16.2488 4.26673C16.2976 4.26673 16.4927 4.25625 16.6445 4.37153C16.883 4.55493 16.8938 4.95317 16.7366 5.20993C16.7095 5.25709 16.5632 5.47193 16.341 5.48765C16.1459 5.50337 16.0808 5.35665 15.9236 5.34617C15.5388 5.32521 15.2082 6.14265 15.1649 6.25269C15.0781 6.4623 14.8668 7.00726 15.0185 7.70418C15.051 7.85614 15.1269 8.17578 15.36 8.5059C15.864 9.2133 16.7095 9.38622 17.0239 9.4491C17.3328 9.51198 18.5089 9.74778 19.4249 9.01418C19.5712 8.8989 20.0536 8.50066 20.1837 7.8247C20.4059 6.68237 19.4141 5.82825 19.3544 5.78109C19.3111 5.18897 19.1647 4.24577 18.6499 3.21349C18.3247 2.55848 18.0211 1.95588 17.3328 1.5C16.4277 0.90788 15.1107 0.740198 14.4223 1.25372C14.3519 1.3166 14.1188 1.49476 14.0104 1.80392Z" fill="#FEA300"/>
<path d="M12.9806 7.42645C12.8993 7.50505 12.6609 7.74609 12.6175 8.12337C12.5579 8.64737 12.921 9.00893 12.9969 9.08229C13.3926 9.47529 14.0538 9.63249 14.5307 9.39669C14.5687 9.38097 14.986 9.16613 15.0023 8.85697C15.0077 8.72073 14.9318 8.65261 14.8234 8.34869C14.753 8.14957 14.7096 7.98713 14.6771 7.87709C14.5307 7.92425 14.2814 7.98713 13.9725 7.94521C13.4197 7.87709 13.0782 7.53125 12.9806 7.42645Z" fill="#FEA300"/>
<path opacity="0.12" d="M14.0646 2.26504C14.0701 2.42748 14.0917 2.66852 14.2056 2.92528C14.2814 3.0982 14.3573 3.203 14.4169 3.28684C14.6446 3.6222 14.7204 3.93661 14.8397 4.28769C15.0294 4.83265 14.9969 5.28853 14.9589 5.85445C14.9264 6.32605 14.818 7.04393 14.4657 7.87709C14.612 7.91901 14.8234 8.00285 15.0511 8.14957C15.4684 8.42206 15.6581 8.74694 15.7773 8.8989C16.0212 9.20806 16.5632 9.53294 17.8694 9.51198C17.7393 9.38622 17.555 9.19758 17.3545 8.96702C16.883 8.43254 16.4711 7.96618 16.2272 7.40025C16.0862 7.07537 15.8695 6.40989 16.0375 5.44573C16.1892 5.51909 16.3681 5.51385 16.509 5.42477C16.6553 5.33045 16.7475 5.14181 16.6987 4.96889C16.6391 4.76977 16.3898 4.63353 16.135 4.69641C16.0808 4.56541 15.9941 4.37677 15.8532 4.17241C15.631 3.85277 15.3979 3.65364 15.3112 3.58028C15.0348 3.34972 14.6337 2.95672 14.0646 2.26504Z" fill="#606060"/>
<path opacity="0.14" d="M11.9455 5.37761C11.9509 5.29377 12.2273 5.22565 12.4603 5.24137C12.6663 5.25709 12.9102 5.34617 12.9048 5.42477C12.8993 5.49813 12.6717 5.55577 12.5037 5.56101C12.2436 5.57149 11.9455 5.46145 11.9455 5.37761Z" fill="#606060"/>
<path d="M12.6175 3.42833C12.3086 4.08333 12.0322 4.74881 11.7937 5.43001C11.7774 5.47193 11.8099 5.51385 11.8479 5.52433C12.0593 5.60293 12.2706 5.63961 12.4928 5.63437C12.5958 5.63437 12.5958 5.47717 12.4928 5.47717C12.2815 5.47717 12.0864 5.44049 11.8912 5.37237C11.9075 5.40381 11.9292 5.43525 11.9454 5.46669C12.1785 4.79597 12.4441 4.14097 12.753 3.50169C12.8018 3.41785 12.6609 3.334 12.6175 3.42833Z" fill="#161616"/>
<path d="M12.4712 5.66581C12.5145 6.34177 12.5796 7.09109 13.0999 7.59937C13.5985 8.09193 14.3194 8.05001 14.9752 7.97665C15.0781 7.96617 15.0781 7.80897 14.9752 7.81945C14.3681 7.88757 13.6798 7.94521 13.2137 7.48933C12.7259 7.01249 12.6771 6.29985 12.6338 5.66581C12.6283 5.56625 12.4658 5.56625 12.4712 5.66581Z" fill="#161616"/>
<path d="M14.6554 7.99237C14.7258 8.35917 14.8559 8.71025 15.0402 9.03514C15.089 9.12422 15.2299 9.04562 15.1811 8.95653C15.0023 8.63689 14.883 8.30677 14.8126 7.95045C14.7963 7.85089 14.6391 7.89281 14.6554 7.99237Z" fill="#161616"/>
<path d="M12.5796 6.46753C12.8452 6.69285 13.2408 6.58805 13.3438 6.25793C13.3763 6.15837 13.2191 6.12169 13.1866 6.21601C13.1216 6.42561 12.8668 6.50421 12.6988 6.35225C12.6175 6.28937 12.5037 6.39941 12.5796 6.46753Z" fill="#161616"/>
<path d="M13.0782 6.25269C13.1649 6.27365 13.23 6.32081 13.2842 6.38369C13.3113 6.41513 13.3709 6.40989 13.398 6.38369C13.4305 6.35225 13.4251 6.30509 13.398 6.27365C13.3275 6.18981 13.23 6.12693 13.1216 6.10073C13.024 6.07453 12.9807 6.22649 13.0782 6.25269Z" fill="#161616"/>
<path d="M13.3221 4.29293C13.3655 4.07285 13.6473 4.11477 13.7991 4.19337C13.9291 4.26149 14.0213 4.37153 14.0755 4.50253C14.1134 4.59685 14.2706 4.55493 14.2327 4.46061C14.1459 4.23529 13.9671 4.05713 13.7178 3.99425C13.4901 3.93661 13.2191 4.00473 13.1704 4.25101C13.1487 4.35057 13.3059 4.39249 13.3221 4.29293Z" fill="#161616"/>
<path d="M13.3167 3.36545C13.5606 2.97244 14.0375 3.27637 14.1351 3.60649C14.1622 3.70605 14.3194 3.66413 14.2923 3.56457C14.2218 3.32353 14.0484 3.09821 13.7828 3.03533C13.5443 2.98292 13.3004 3.08249 13.1758 3.28161C13.1216 3.37593 13.2625 3.45453 13.3167 3.36545Z" fill="#161616"/>
<path d="M13.4793 5.18373C13.5823 5.18373 13.5823 5.02653 13.4793 5.02653C13.3763 5.02653 13.3709 5.18373 13.4793 5.18373Z" fill="#161616"/>
<path d="M13.7882 4.94793C13.7936 4.94793 13.8045 4.94793 13.8099 4.94793C13.8533 4.94793 13.8912 4.91125 13.8912 4.86933C13.8912 4.82741 13.8533 4.79073 13.8099 4.79073C13.8045 4.79073 13.7936 4.79073 13.7882 4.79073C13.7449 4.79073 13.7069 4.82741 13.7069 4.86933C13.7069 4.91649 13.7449 4.94793 13.7882 4.94793Z" fill="#161616"/>
<path d="M13.7936 5.21517C13.7936 5.22041 13.7936 5.22565 13.7936 5.23089C13.7936 5.33045 13.9562 5.33045 13.9562 5.23089C13.9562 5.22565 13.9562 5.22041 13.9562 5.21517C13.9562 5.11561 13.7936 5.11561 13.7936 5.21517C13.7936 5.22041 13.7936 5.22565 13.7936 5.23089C13.7936 5.33045 13.9562 5.33045 13.9562 5.23089C13.9562 5.22565 13.9562 5.22041 13.9562 5.21517C13.9562 5.11561 13.7936 5.11561 13.7936 5.21517Z" fill="#161616"/>
<path d="M16.1567 4.41345C16.303 4.20909 16.5523 4.34009 16.6391 4.50777C16.7095 4.63877 16.7095 4.79597 16.7041 4.93745C16.6824 5.29377 16.3735 5.54529 16.0158 5.32521C15.9291 5.26757 15.8478 5.40381 15.9345 5.46145C16.1459 5.59769 16.4168 5.61341 16.6282 5.45621C16.845 5.29377 16.883 5.02653 16.8667 4.77501C16.8504 4.53397 16.7529 4.26673 16.4927 4.17765C16.3084 4.11477 16.1242 4.18289 16.0158 4.33485C15.9616 4.41345 16.1025 4.49205 16.1567 4.41345Z" fill="#161616"/>
<path d="M1.57717 1.4214C1.46336 1.4214 1.34954 1.42664 1.24114 1.42664C1.05687 1.77248 0.953887 2.08688 0.894268 2.31744C0.720831 2.9934 0.764191 3.55408 0.796711 3.82657C0.81839 4.00997 0.85091 4.16193 0.878009 4.26673C0.975567 4.26673 1.07312 4.26673 1.17068 4.26673C1.20862 4.39249 1.24656 4.51825 1.2845 4.64401C2.20046 4.63877 2.95383 4.63877 3.47956 4.64401C6.66646 4.67021 8.88862 4.79073 9.40351 4.81693C10.0485 4.85361 10.5742 4.89029 10.8994 4.91125C10.9102 4.71737 10.9644 4.64925 11.0132 4.62829C11.0999 4.59161 11.1758 4.68069 11.2896 4.65973C11.4089 4.63877 11.4847 4.51825 11.5335 4.40821C11.6311 4.45537 11.8099 4.51825 12.0213 4.48681C12.0701 4.48157 12.1135 4.46585 12.1514 4.45537C12.2435 4.27721 12.3357 4.09905 12.4278 3.92089C12.2977 3.87897 12.1135 3.84229 11.8912 3.84229C11.7666 3.84229 11.6582 3.85801 11.566 3.87373C11.5552 3.84753 11.4685 3.61172 11.2409 3.55932C11.1704 3.5436 11.1108 3.54884 11.062 3.55932C11.0295 3.50168 10.997 3.44404 10.9644 3.3864C10.8344 3.36544 10.6338 3.334 10.3953 3.29208C8.46044 2.95148 7.11089 2.53752 6.08111 2.23884C5.09469 1.95064 3.65842 1.55764 1.81565 1.12272C1.73977 1.22228 1.65847 1.32184 1.57717 1.4214Z" fill="white"/>
<path opacity="0.07" d="M0.812993 3.45452C0.861772 3.44404 0.915971 3.56456 0.975589 3.54884C1.07315 3.52788 1.05147 3.19776 1.07315 2.95148C1.08941 2.71568 1.15986 2.37508 1.39834 1.96112C1.55552 2.024 1.79399 2.12356 2.08125 2.24408C3.11645 2.679 3.83187 3.01436 4.04867 3.10868C5.47952 3.7532 7.05128 4.0414 7.44694 4.11476C8.34664 4.28244 9.59321 4.42917 11.0891 4.36629C11.0241 4.53921 10.959 4.71213 10.894 4.88505C10.6447 4.87981 10.2815 4.87981 9.83711 4.86933C7.92931 4.83265 6.59601 4.77501 5.83181 4.74357C4.75325 4.70165 3.20858 4.65973 1.25742 4.66497C1.23574 4.52349 1.21406 4.382 1.19238 4.24052C1.06773 4.26148 0.943069 4.28244 0.818411 4.30341C0.737113 3.6484 0.758794 3.465 0.812993 3.45452Z" fill="#606060"/>
<path d="M1.69101 1.12796C1.01351 2.13928 0.823813 3.39688 1.17069 4.55492C1.19779 4.65448 1.35497 4.61257 1.32787 4.51301C0.991834 3.39164 1.17611 2.18644 1.83193 1.20656C1.89155 1.11748 1.75063 1.03888 1.69101 1.12796Z" fill="#161616"/>
<path d="M1.83191 1.27992C4.8833 2.024 7.92928 2.76808 10.9807 3.50692C11.0837 3.53312 11.127 3.38116 11.024 3.35496C7.97264 2.61088 4.92666 1.8668 1.87527 1.12796C1.77771 1.10176 1.73435 1.25372 1.83191 1.27992Z" fill="#161616"/>
<path d="M1.28451 4.72784C4.46598 4.70164 7.64745 4.775 10.8235 4.94268C10.9265 4.94792 10.9265 4.79072 10.8235 4.78548C7.64745 4.6178 4.46598 4.54444 1.28451 4.57064C1.18153 4.57064 1.18153 4.72784 1.28451 4.72784Z" fill="#161616"/>
<path d="M10.9319 3.44928C11.1487 3.91564 11.1 4.44488 10.8018 4.86933C10.7422 4.95317 10.8832 5.03177 10.9428 4.94793C11.2734 4.47633 11.3168 3.88944 11.0729 3.37068C11.0295 3.2816 10.8886 3.3602 10.9319 3.44928Z" fill="#161616"/>
<path d="M11.0945 3.65364C11.1541 3.69556 11.1975 3.67984 11.2679 3.69556C11.4034 3.73224 11.4576 3.85276 11.4847 3.97852C11.5281 4.20908 11.4685 4.6964 11.1162 4.56016C11.0186 4.52348 10.9753 4.67544 11.0728 4.71212C11.4305 4.84836 11.6636 4.4868 11.6636 4.18288C11.6636 4.0152 11.6419 3.82656 11.5444 3.68508C11.5118 3.63792 11.4685 3.59076 11.4143 3.56456C11.3438 3.53312 11.2463 3.55408 11.1866 3.51216C11.0891 3.45976 11.0078 3.596 11.0945 3.65364Z" fill="#161616"/>
<path d="M11.5715 3.94184C11.8479 3.92612 12.1243 3.93136 12.3953 3.96804C12.4983 3.97852 12.4983 3.82133 12.3953 3.81085C12.1189 3.77941 11.8479 3.76893 11.5715 3.78465C11.4685 3.79513 11.4685 3.95232 11.5715 3.94184Z" fill="#161616"/>
<path d="M11.5498 4.51824C11.772 4.55492 11.9942 4.57064 12.2164 4.54968C12.3194 4.5392 12.3194 4.382 12.2164 4.39248C12.0051 4.4082 11.7991 4.40296 11.5931 4.36628C11.4902 4.35056 11.4468 4.49728 11.5498 4.51824Z" fill="#161616"/>
<path d="M1.59887 1.37948C1.07314 1.08604 0.926799 2.00304 0.856341 2.29124C0.693743 2.95672 0.617864 3.64316 0.818401 4.30864C0.82924 4.34008 0.861761 4.36628 0.894281 4.36628C0.964739 4.36628 1.04062 4.36628 1.11108 4.36628C1.21406 4.36628 1.21406 4.20908 1.11108 4.20908C1.04062 4.20908 0.964739 4.20908 0.894281 4.20908C0.92138 4.23004 0.948481 4.24576 0.970161 4.26672C0.829243 3.78464 0.829241 3.29732 0.91054 2.80476C0.948479 2.58468 0.997259 2.3646 1.05688 2.14976C1.09482 2.00828 1.21406 1.3428 1.51215 1.51572C1.60971 1.56812 1.69101 1.43188 1.59887 1.37948Z" fill="#161616"/>
<path d="M7.45776 2.50609C7.3602 2.39081 7.19761 2.40653 7.17593 2.40653C6.99707 2.41701 6.82364 2.57421 6.63394 2.95673C6.26539 3.68509 6.24913 4.41345 6.24913 4.52873C6.24371 5.03177 6.29249 5.84921 6.66104 6.82385C6.69356 7.23257 6.76402 7.80374 6.92119 8.46922C7.19761 9.66394 7.49028 10.9215 8.49838 12.0377C8.87777 12.4621 9.62572 13.2848 10.9265 13.5835C12.2869 13.8979 13.3925 13.4315 13.6635 13.311C13.902 13.2009 14.5687 12.8761 15.1323 12.1896C15.4738 11.7757 15.8694 11.325 15.8044 10.7696C15.7773 10.5285 15.6689 10.3242 15.5063 9.9993C15.3437 9.67442 15.257 9.51198 15.0835 9.4491C14.8451 9.36002 14.5903 9.51722 14.3085 9.67442C13.8315 9.93642 13.7882 10.1879 13.2733 10.4499C13.1378 10.5181 13.0023 10.5652 12.7313 10.6491C12.3031 10.7853 11.8804 10.9215 11.4902 10.9477C10.6392 11.0054 9.95633 10.5338 9.76121 10.3975C9.04037 9.89974 8.75854 9.23426 8.57426 8.79934C8.16235 7.8247 8.19487 6.92865 8.26533 6.40465C8.52006 6.36273 8.67724 6.26317 8.75312 6.20553C9.04037 5.99069 9.11083 5.69201 9.21922 5.23089C9.28968 4.94269 9.3222 4.79073 9.24632 4.73309C9.08915 4.61781 8.60678 4.99509 8.49838 5.08417C8.52006 4.72785 8.57426 4.43965 8.62846 4.23529C8.69892 3.96281 8.73686 3.82133 8.83441 3.71129C9.02411 3.49645 9.24633 3.51741 9.3222 3.31305C9.36556 3.20301 9.36014 3.05105 9.268 2.96197C9.15961 2.85717 8.92655 2.86241 8.72602 3.01437C8.66098 2.87813 8.5309 2.79429 8.38998 2.78905C8.24907 2.78381 8.15693 2.86765 8.12983 2.88861C8.14609 2.74713 8.08105 2.61613 7.97265 2.56373C7.82631 2.49037 7.59326 2.57421 7.50654 2.78905C7.51196 2.76285 7.5499 2.61613 7.45776 2.50609Z" fill="white"/>
<path opacity="0.12" d="M7.17592 2.40652C7.04585 2.62661 6.88325 2.95149 6.77485 3.37593C6.53637 4.29817 6.73149 5.06845 6.81821 5.44049C7.75043 9.28142 7.34394 9.37574 7.99432 10.277C8.2328 10.6019 9.8696 12.7817 12.3085 12.4935C14.3518 12.2525 15.4358 10.4552 15.5767 10.2141C15.658 10.4237 15.7556 10.7801 15.6906 11.2045C15.593 11.8281 15.1919 12.2211 15.0456 12.3678C14.9047 12.504 14.7312 12.6245 14.3789 12.8603C14.0646 13.0752 13.7557 13.2638 13.6202 13.3319C12.9752 13.683 11.9779 13.7669 11.2842 13.6778C9.39807 13.4367 8.26532 11.7075 7.79379 10.9897C6.71523 9.34954 6.60683 7.68845 6.61767 6.86053C6.51469 6.52517 6.41172 6.18457 6.30874 5.84921C6.23828 5.33045 6.23286 4.90077 6.2437 4.60209C6.2708 3.85277 6.29248 3.29209 6.68813 2.81525C6.86157 2.60565 7.05127 2.47988 7.17592 2.40652Z" fill="#606060"/>
<path d="M14.5145 12.7817C15.3708 12.3887 15.9453 11.5661 15.8044 10.6333C15.7231 10.0674 15.2516 9.09278 14.4982 9.43862C14.1622 9.59582 13.8858 9.88402 13.5768 10.0884C13.1486 10.3713 12.6554 10.5914 12.1622 10.7434C11.5335 10.9373 10.8344 10.9792 10.2273 10.6857C9.7829 10.4709 9.43602 10.1198 9.17045 9.72158C8.5851 8.8465 8.28158 7.81422 8.35204 6.77146C8.35746 6.67189 8.19487 6.67189 8.18945 6.77146C8.12983 7.65178 8.33036 8.49018 8.73144 9.27618C9.08373 9.97834 9.59862 10.6386 10.3791 10.9215C11.3276 11.2621 12.3628 10.9163 13.2191 10.4814C13.6039 10.2823 13.9345 10.0255 14.2814 9.76874C14.5958 9.53294 14.9101 9.41766 15.2299 9.73206C15.6255 10.1198 15.7448 10.7958 15.6255 11.3093C15.4792 11.9224 15.0077 12.3835 14.4332 12.6455C14.341 12.6874 14.4223 12.8237 14.5145 12.7817Z" fill="#161616"/>
<path d="M8.34123 6.83958C8.27077 6.55138 8.48214 6.47801 8.67726 6.34177C8.79108 6.26317 8.8778 6.15313 8.95909 6.04309C9.16505 5.75489 9.32765 5.41953 9.37101 5.06845C9.39269 4.89553 9.43063 4.62305 9.18673 4.61257C8.89948 4.60209 8.78024 4.95317 8.50924 4.97937C8.40627 4.98985 8.40627 5.14705 8.50924 5.13657C8.7152 5.11561 8.81818 4.98985 8.97535 4.87457C9.06749 4.80645 9.17047 4.72785 9.21925 4.87981C9.24635 4.96365 9.20299 5.12085 9.18131 5.20469C9.14337 5.38285 9.06207 5.55577 8.97535 5.71821C8.89405 5.86493 8.80192 6.01689 8.67726 6.13741C8.56344 6.25269 8.40627 6.27889 8.28161 6.37321C8.11359 6.49898 8.14069 6.71382 8.18405 6.88674C8.21115 6.98106 8.36833 6.93914 8.34123 6.83958Z" fill="#161616"/>
<path d="M6.44967 6.01165C6.34127 5.33569 6.33043 4.64401 6.43883 3.96805C6.48219 3.69557 6.53639 3.41785 6.63395 3.15585C6.69357 2.99341 6.77487 2.80476 6.8941 2.67376C7.0567 2.50084 7.37648 2.41176 7.46319 2.7052C7.49029 2.80477 7.64747 2.76284 7.62037 2.66328C7.54449 2.41176 7.29518 2.27552 7.03502 2.37508C6.70441 2.50608 6.54723 2.89909 6.44425 3.19777C6.14074 4.10429 6.14074 5.12085 6.28708 6.05357C6.30875 6.15313 6.46593 6.11121 6.44967 6.01165Z" fill="#161616"/>
<path d="M7.23555 3.3078C7.36563 2.99864 7.73418 2.37508 8.13525 2.79952C8.20571 2.87288 8.31953 2.76284 8.24907 2.68948C8.0648 2.4956 7.79922 2.46416 7.56616 2.59516C7.30601 2.73664 7.18677 3.01436 7.07837 3.27112C7.04043 3.3602 7.19761 3.40212 7.23555 3.3078Z" fill="#161616"/>
<path d="M7.91846 3.43881C7.92388 3.23969 8.00518 3.01961 8.20572 2.92529C8.37373 2.84668 8.57426 2.88336 8.68808 3.02485C8.75312 3.10345 8.86693 2.99341 8.8019 2.91481C8.64472 2.72616 8.36289 2.679 8.14068 2.77856C7.88053 2.89908 7.76129 3.17157 7.75587 3.43881C7.75045 3.53837 7.91304 3.53837 7.91846 3.43881Z" fill="#161616"/>
<path d="M8.39001 3.49121C8.48757 3.14013 8.89406 2.82049 9.24635 3.10345C9.32765 3.16633 9.44147 3.05629 9.36017 2.99341C8.91032 2.63709 8.36833 2.97245 8.23283 3.44929C8.20573 3.54885 8.36291 3.59077 8.39001 3.49121Z" fill="#161616"/>
<path d="M9.21381 3.07725C9.38725 3.31305 9.00243 3.45977 8.86693 3.56981C8.75312 3.65889 8.68808 3.77417 8.6393 3.90517C8.50922 4.26673 8.4496 4.65973 8.41708 5.03701C8.40624 5.13657 8.56884 5.13657 8.57968 5.03701C8.60678 4.75929 8.65014 4.48157 8.7206 4.20909C8.74228 4.12001 8.76396 4.03093 8.79648 3.94185C8.86693 3.75845 8.96991 3.69033 9.12709 3.58029C9.32221 3.44405 9.52816 3.22397 9.35472 2.98817C9.29511 2.91481 9.15419 2.99341 9.21381 3.07725Z" fill="#161616"/>
<path d="M6.24915 5.85445C6.33587 6.21077 6.44426 6.56185 6.57976 6.90769C6.6177 7.00201 6.77487 6.96009 6.73693 6.86577C6.60144 6.51993 6.49304 6.16885 6.40632 5.81253C6.38464 5.71297 6.22747 5.75489 6.24915 5.85445Z" fill="#161616"/>
<path d="M6.55264 7.00726C6.7586 8.80982 7.21929 10.6595 8.47128 12.0639C9.46854 13.18 11.0511 14.0289 12.6121 13.7512C13.3492 13.6202 14.0212 13.2638 14.5578 12.766C14.6337 12.6979 14.5199 12.5826 14.444 12.656C13.3709 13.6516 11.8424 13.9136 10.4821 13.3215C9.01869 12.677 7.99433 11.4665 7.4144 10.036C7.02417 9.06658 6.82905 8.03954 6.70982 7.01249C6.7044 6.90769 6.5418 6.9077 6.55264 7.00726Z" fill="#161616"/>
</svg>
